<svg width="1514" height="764" viewBox="0 0 1514 764" fill="none" xmlns="http://www.w3.org/2000/svg">
<rect x="749" y="1" width="362" height="762" rx="39" stroke="#001309" stroke-width="2"/>
<rect width="710" height="364" rx="40" fill="#317250"/>
<path d="M60.036 242.608C63.5853 242.608 66.152 243.18 67.736 244.324C69.3493 245.468 70.156 247.096 70.156 249.208C70.156 251.32 69.584 253.007 68.44 254.268C67.3253 255.5 65.6827 256.233 63.512 256.468C66.3573 256.967 68.4253 257.817 69.716 259.02C71.0067 260.193 71.652 261.865 71.652 264.036C71.652 266.735 70.5373 268.744 68.308 270.064C66.0787 271.355 63.1893 272 59.64 272H48.112V270.944L51.412 270.548V244.06L47.584 243.664V242.608H60.036ZM61.884 257.744C60.7693 257.509 59.684 257.392 58.628 257.392C57.572 257.392 56.7067 257.407 56.032 257.436V270.768C56.7653 270.973 57.4253 271.076 58.012 271.076C58.628 271.076 59.3467 271.032 60.168 270.944C61.0187 270.856 61.9867 270.621 63.072 270.24C64.1867 269.829 65.1107 269.052 65.844 267.908C66.5773 266.764 66.944 265.356 66.944 263.684C66.944 260.428 65.2573 258.448 61.884 257.744ZM56.032 243.796V256.116H57.88C62.8373 256.116 65.316 253.857 65.316 249.34C65.316 247.375 64.8027 245.967 63.776 245.116C62.7787 244.236 61.1507 243.796 58.892 243.796H56.032ZM79.8298 267.248C79.8298 269.155 80.6071 270.284 82.1618 270.636C82.5138 270.724 82.8511 270.768 83.1738 270.768C84.2885 270.768 85.4471 270.299 86.6498 269.36C87.8525 268.392 88.4831 267.101 88.5418 265.488V261.704C82.7338 261.763 79.8298 263.611 79.8298 267.248ZM81.5898 272.528C79.9178 272.528 78.4805 272.073 77.2778 271.164C76.1045 270.225 75.5178 268.92 75.5178 267.248C75.5471 264.989 76.6765 263.303 78.9058 262.188C81.1645 261.073 84.3765 260.516 88.5418 260.516V256.732C88.5418 253.007 87.1925 251.144 84.4938 251.144C83.1151 251.144 82.0005 251.716 81.1498 252.86C80.5631 253.652 80.2698 254.635 80.2698 255.808C80.2698 256.307 80.3285 256.835 80.4458 257.392C80.0351 257.685 79.6098 257.832 79.1698 257.832C78.7591 257.832 78.3485 257.744 77.9378 257.568C76.9991 257.216 76.5298 256.541 76.5298 255.544C76.5298 254.195 77.0138 253.08 77.9818 252.2C79.5658 250.763 81.7511 250.044 84.5378 250.044C87.3245 250.044 89.3485 250.645 90.6098 251.848C91.8711 253.021 92.5018 254.884 92.5018 257.436V270.768L96.1978 270.944L96.2418 271.956L88.8938 272.484L88.4978 268.568C87.1485 271.208 84.8458 272.528 81.5898 272.528ZM106.26 271.384C107.434 271.384 108.446 271.061 109.296 270.416C110.176 269.771 110.616 268.685 110.616 267.16C110.616 266.133 110.147 265.283 109.208 264.608C108.299 263.933 107.155 263.332 105.776 262.804C104.398 262.247 103.459 261.865 102.96 261.66C102.491 261.425 101.86 261.059 101.068 260.56C99.6311 259.592 98.9124 258.199 98.9124 256.38C98.9124 254.561 99.6311 253.051 101.068 251.848C102.506 250.645 104.603 250.044 107.36 250.044C109.12 250.044 110.616 250.44 111.848 251.232C113.11 251.995 113.74 252.919 113.74 254.004C113.74 255.089 113.33 255.837 112.508 256.248C112.068 256.453 111.628 256.556 111.188 256.556C110.778 256.556 110.367 256.468 109.956 256.292C110.074 255.764 110.132 255.192 110.132 254.576C110.132 253.96 109.986 253.344 109.692 252.728C109.194 251.672 108.24 251.144 106.832 251.144C105.424 251.144 104.354 251.525 103.62 252.288C102.887 253.051 102.52 254.048 102.52 255.28C102.52 256.541 103.048 257.48 104.104 258.096C104.896 258.595 105.879 259.049 107.052 259.46C108.226 259.871 109.018 260.164 109.428 260.34C109.868 260.487 110.44 260.751 111.144 261.132C111.848 261.513 112.376 261.909 112.728 262.32C113.638 263.317 114.092 264.667 114.092 266.368C114.092 268.069 113.33 269.521 111.804 270.724C110.279 271.897 108.416 272.484 106.216 272.484C104.016 272.484 102.08 272.147 100.408 271.472C98.7657 270.797 97.9444 269.815 97.9444 268.524C97.9444 267.321 98.8391 266.529 100.628 266.148C101.156 269.639 103.034 271.384 106.26 271.384ZM125.365 243.356C125.365 244.06 125.116 244.676 124.617 245.204C124.118 245.703 123.488 245.952 122.725 245.952C121.992 245.952 121.376 245.703 120.877 245.204C120.378 244.705 120.129 244.089 120.129 243.356C120.129 242.593 120.378 241.963 120.877 241.464C121.376 240.936 121.992 240.672 122.725 240.672C123.458 240.672 124.074 240.936 124.573 241.464C125.101 241.992 125.365 242.623 125.365 243.356ZM117.885 272V270.944L120.789 270.724V252.024L116.917 251.892V250.88L125.101 250.308V270.724L128.005 270.944V272H117.885ZM140.367 272H130.247V270.944L133.151 270.724V240.408L129.235 240.232V239.22L137.463 238.296V270.724L140.367 270.944V272Z" fill="#F2EFD2"/>
<path d="M56.463 316L58.269 301.3H59.76L57.954 316H56.463ZM48.567 312.22V310.687H61.524V312.22H48.567ZM51.003 316L52.83 301.3H54.321L52.494 316H51.003ZM49.239 306.613V305.08H62.196V306.613H49.239ZM68.2676 316.168C67.2316 316.168 66.2236 316.007 65.2436 315.685C64.2776 315.363 63.4866 314.929 62.8706 314.383L63.8366 312.724C64.3266 313.186 64.9636 313.564 65.7476 313.858C66.5316 314.152 67.3716 314.299 68.2676 314.299C69.3596 314.299 70.2066 314.068 70.8086 313.606C71.4246 313.13 71.7326 312.493 71.7326 311.695C71.7326 310.925 71.4386 310.309 70.8506 309.847C70.2766 309.371 69.3596 309.133 68.0996 309.133H66.9236V307.663L71.2916 302.287L71.5856 303.127H63.5426V301.3H73.2446V302.728L68.8976 308.083L67.8056 307.432H68.4986C70.2766 307.432 71.6066 307.831 72.4886 308.629C73.3846 309.427 73.8326 310.442 73.8326 311.674C73.8326 312.5 73.6296 313.256 73.2236 313.942C72.8176 314.628 72.2016 315.174 71.3756 315.58C70.5636 315.972 69.5276 316.168 68.2676 316.168ZM78.2692 316V302.14L79.1722 303.127H74.9512V301.3H80.3482V316H78.2692ZM86.1047 316L92.3417 302.182L92.8877 303.127H84.1517L85.2017 302.098V305.752H83.1857V301.3H94.2737V302.728L88.3307 316H86.1047ZM95.8834 316V314.572L101.868 308.797C102.4 308.293 102.792 307.852 103.044 307.474C103.31 307.082 103.485 306.725 103.569 306.403C103.667 306.067 103.716 305.745 103.716 305.437C103.716 304.681 103.45 304.086 102.918 303.652C102.386 303.218 101.609 303.001 100.587 303.001C99.8034 303.001 99.0964 303.134 98.4664 303.4C97.8364 303.652 97.2904 304.051 96.8284 304.597L95.4004 303.358C95.9604 302.644 96.7094 302.098 97.6474 301.72C98.5994 301.328 99.6424 301.132 100.776 301.132C101.798 301.132 102.687 301.3 103.443 301.636C104.199 301.958 104.78 302.427 105.186 303.043C105.606 303.659 105.816 304.387 105.816 305.227C105.816 305.703 105.753 306.172 105.627 306.634C105.501 307.096 105.263 307.586 104.913 308.104C104.563 308.622 104.059 309.203 103.401 309.847L98.0674 314.992L97.5634 314.173H106.446V316H95.8834ZM112.919 316.168C111.883 316.168 110.875 316.007 109.895 315.685C108.929 315.363 108.138 314.929 107.522 314.383L108.488 312.724C108.978 313.186 109.615 313.564 110.399 313.858C111.183 314.152 112.016 314.299 112.898 314.299C114.018 314.299 114.879 314.061 115.481 313.585C116.083 313.109 116.384 312.472 116.384 311.674C116.384 311.128 116.251 310.652 115.985 310.246C115.719 309.84 115.257 309.532 114.599 309.322C113.955 309.098 113.066 308.986 111.932 308.986H108.593L109.37 301.3H117.665V303.127H110.147L111.239 302.098L110.63 308.167L109.538 307.159H112.373C113.843 307.159 115.026 307.348 115.922 307.726C116.818 308.104 117.469 308.629 117.875 309.301C118.281 309.959 118.484 310.722 118.484 311.59C118.484 312.43 118.281 313.2 117.875 313.9C117.469 314.586 116.853 315.139 116.027 315.559C115.215 315.965 114.179 316.168 112.919 316.168ZM126.238 316.168C125.09 316.168 124.061 315.874 123.151 315.286C122.255 314.698 121.541 313.844 121.009 312.724C120.491 311.604 120.232 310.246 120.232 308.65C120.232 307.054 120.491 305.696 121.009 304.576C121.541 303.456 122.255 302.602 123.151 302.014C124.061 301.426 125.09 301.132 126.238 301.132C127.372 301.132 128.394 301.426 129.304 302.014C130.214 302.602 130.928 303.456 131.446 304.576C131.964 305.696 132.223 307.054 132.223 308.65C132.223 310.246 131.964 311.604 131.446 312.724C130.928 313.844 130.214 314.698 129.304 315.286C128.394 315.874 127.372 316.168 126.238 316.168ZM126.238 314.299C127.008 314.299 127.68 314.089 128.254 313.669C128.842 313.249 129.297 312.619 129.619 311.779C129.955 310.939 130.123 309.896 130.123 308.65C130.123 307.404 129.955 306.361 129.619 305.521C129.297 304.681 128.842 304.051 128.254 303.631C127.68 303.211 127.008 303.001 126.238 303.001C125.468 303.001 124.789 303.211 124.201 303.631C123.613 304.051 123.151 304.681 122.815 305.521C122.493 306.361 122.332 307.404 122.332 308.65C122.332 309.896 122.493 310.939 122.815 311.779C123.151 312.619 123.613 313.249 124.201 313.669C124.789 314.089 125.468 314.299 126.238 314.299Z" fill="#F2EFD2" fill-opacity="0.9"/>
<rect y="400" width="710" height="364" rx="40" fill="#E35252"/>
<path d="M72.62 649.296H71.3L69.804 644.236L62.016 644.148V670.548L66.108 670.944V672H53.392V670.944L57.484 670.548V644.148L49.696 644.236L48.2 649.296H46.924V642.652L59.772 642.564L72.62 642.652V649.296ZM94.3423 661.264C94.3423 664.52 93.3596 667.204 91.3943 669.316C89.4289 671.428 86.7449 672.484 83.3422 672.484C79.9689 672.484 77.2996 671.428 75.3343 669.316C73.3689 667.204 72.3863 664.52 72.3863 661.264C72.3863 658.008 73.3689 655.324 75.3343 653.212C77.2996 651.1 79.9689 650.044 83.3422 650.044C86.7449 650.044 89.4289 651.1 91.3943 653.212C93.3596 655.324 94.3423 658.008 94.3423 661.264ZM77.1823 661.264C77.1823 668.04 79.2356 671.428 83.3422 671.428C87.4783 671.428 89.5463 668.04 89.5463 661.264C89.5463 657.979 89.0769 655.471 88.1383 653.74C87.1996 652.009 85.6156 651.144 83.3863 651.144C81.1569 651.144 79.5583 652.009 78.5903 653.74C77.6516 655.471 77.1823 657.979 77.1823 661.264ZM127.336 650.22C132.03 650.22 134.376 652.479 134.376 656.996C134.376 660.252 134.274 664.828 134.068 670.724L137.192 670.944V672H127.38V670.944L129.756 670.768C129.962 663.024 130.064 658.331 130.064 656.688C130.064 655.016 129.756 653.769 129.14 652.948C128.524 652.127 127.527 651.716 126.148 651.716C124.77 651.716 123.494 652.303 122.32 653.476C121.147 654.62 120.355 655.852 119.944 657.172C119.944 660.34 119.842 664.857 119.636 670.724L122.76 670.944V672H112.948V670.944L115.324 670.768C115.53 663.024 115.632 658.331 115.632 656.688C115.632 655.016 115.324 653.769 114.708 652.948C114.092 652.127 113.022 651.716 111.496 651.716C110 651.716 108.592 652.523 107.272 654.136C105.952 655.72 105.292 657.128 105.292 658.36V670.724L108.592 670.944V672H98.1204V670.944L100.98 670.768V652.112L97.2404 651.936V650.924L105.116 650.396L104.896 654.928H105.336C106.128 653.373 107.184 652.2 108.504 651.408C109.854 650.616 111.32 650.22 112.904 650.22C116.864 650.22 119.152 651.804 119.768 654.972V654.928C120.56 653.373 121.616 652.2 122.936 651.408C124.286 650.616 125.752 650.22 127.336 650.22ZM144.24 667.248C144.24 669.155 145.017 670.284 146.572 670.636C146.924 670.724 147.261 670.768 147.584 670.768C148.699 670.768 149.857 670.299 151.06 669.36C152.263 668.392 152.893 667.101 152.952 665.488V661.704C147.144 661.763 144.24 663.611 144.24 667.248ZM146 672.528C144.328 672.528 142.891 672.073 141.688 671.164C140.515 670.225 139.928 668.92 139.928 667.248C139.957 664.989 141.087 663.303 143.316 662.188C145.575 661.073 148.787 660.516 152.952 660.516V656.732C152.952 653.007 151.603 651.144 148.904 651.144C147.525 651.144 146.411 651.716 145.56 652.86C144.973 653.652 144.68 654.635 144.68 655.808C144.68 656.307 144.739 656.835 144.856 657.392C144.445 657.685 144.02 657.832 143.58 657.832C143.169 657.832 142.759 657.744 142.348 657.568C141.409 657.216 140.94 656.541 140.94 655.544C140.94 654.195 141.424 653.08 142.392 652.2C143.976 650.763 146.161 650.044 148.948 650.044C151.735 650.044 153.759 650.645 155.02 651.848C156.281 653.021 156.912 654.884 156.912 657.436V670.768L160.608 670.944L160.652 671.956L153.304 672.484L152.908 668.568C151.559 671.208 149.256 672.528 146 672.528ZM175.995 667.424C175.995 667.512 175.98 667.615 175.951 667.732C175.481 669.169 174.689 670.328 173.575 671.208C172.489 672.059 171.213 672.484 169.747 672.484C168.28 672.484 167.048 672.073 166.051 671.252C165.083 670.401 164.599 668.759 164.599 666.324C164.599 665.649 164.672 660.765 164.819 651.672H161.783V650.528H164.863L164.907 644.06H169.219L169.087 650.528H175.379V651.672H169.087C168.94 661.147 168.867 666.691 168.867 668.304C168.867 670.269 169.512 671.252 170.803 671.252C171.595 671.252 172.416 670.797 173.267 669.888C174.147 668.979 174.763 667.952 175.115 666.808C175.701 666.808 175.995 667.013 175.995 667.424ZM200.604 661.264C200.604 664.52 199.621 667.204 197.656 669.316C195.691 671.428 193.007 672.484 189.604 672.484C186.231 672.484 183.561 671.428 181.596 669.316C179.631 667.204 178.648 664.52 178.648 661.264C178.648 658.008 179.631 655.324 181.596 653.212C183.561 651.1 186.231 650.044 189.604 650.044C193.007 650.044 195.691 651.1 197.656 653.212C199.621 655.324 200.604 658.008 200.604 661.264ZM183.444 661.264C183.444 668.04 185.497 671.428 189.604 671.428C193.74 671.428 195.808 668.04 195.808 661.264C195.808 657.979 195.339 655.471 194.4 653.74C193.461 652.009 191.877 651.144 189.648 651.144C187.419 651.144 185.82 652.009 184.852 653.74C183.913 655.471 183.444 657.979 183.444 661.264Z" fill="#F2EFD2"/>
<path d="M56.463 716L58.269 701.3H59.76L57.954 716H56.463ZM48.567 712.22V710.687H61.524V712.22H48.567ZM51.003 716L52.83 701.3H54.321L52.494 716H51.003ZM49.239 706.613V705.08H62.196V706.613H49.239ZM66.8816 707.642H74.4416V709.427H66.8816V707.642ZM67.0706 714.173H75.6386V716H64.9706V701.3H75.3446V703.127H67.0706V714.173ZM82.0899 716.168C81.0539 716.168 80.0459 716.007 79.0659 715.685C78.0999 715.363 77.3089 714.929 76.6929 714.383L77.6589 712.724C78.1489 713.186 78.7859 713.564 79.5699 713.858C80.3539 714.152 81.1939 714.299 82.0899 714.299C83.1819 714.299 84.0289 714.068 84.6309 713.606C85.2469 713.13 85.5549 712.493 85.5549 711.695C85.5549 710.925 85.2609 710.309 84.6729 709.847C84.0989 709.371 83.1819 709.133 81.9219 709.133H80.7459V707.663L85.1139 702.287L85.4079 703.127H77.3649V701.3H87.0669V702.728L82.7199 708.083L81.6279 707.432H82.3209C84.0989 707.432 85.4289 707.831 86.3109 708.629C87.2069 709.427 87.6549 710.442 87.6549 711.674C87.6549 712.5 87.4519 713.256 87.0459 713.942C86.6399 714.628 86.0239 715.174 85.1979 715.58C84.3859 715.972 83.3499 716.168 82.0899 716.168ZM94.1544 716.168C93.1184 716.168 92.1104 716.007 91.1304 715.685C90.1644 715.363 89.3734 714.929 88.7574 714.383L89.7234 712.724C90.2134 713.186 90.8504 713.564 91.6344 713.858C92.4184 714.152 93.2514 714.299 94.1334 714.299C95.2534 714.299 96.1144 714.061 96.7164 713.585C97.3184 713.109 97.6194 712.472 97.6194 711.674C97.6194 711.128 97.4864 710.652 97.2204 710.246C96.9544 709.84 96.4924 709.532 95.8344 709.322C95.1904 709.098 94.3014 708.986 93.1674 708.986H89.8284L90.6054 701.3H98.9004V703.127H91.3824L92.4744 702.098L91.8654 708.167L90.7734 707.159H93.6084C95.0784 707.159 96.2614 707.348 97.1574 707.726C98.0534 708.104 98.7044 708.629 99.1104 709.301C99.5164 709.959 99.7194 710.722 99.7194 711.59C99.7194 712.43 99.5164 713.2 99.1104 713.9C98.7044 714.586 98.0884 715.139 97.2624 715.559C96.4504 715.965 95.4144 716.168 94.1544 716.168ZM101.133 716V714.572L107.118 708.797C107.65 708.293 108.042 707.852 108.294 707.474C108.56 707.082 108.735 706.725 108.819 706.403C108.917 706.067 108.966 705.745 108.966 705.437C108.966 704.681 108.7 704.086 108.168 703.652C107.636 703.218 106.859 703.001 105.837 703.001C105.053 703.001 104.346 703.134 103.716 703.4C103.086 703.652 102.54 704.051 102.078 704.597L100.65 703.358C101.21 702.644 101.959 702.098 102.897 701.72C103.849 701.328 104.892 701.132 106.026 701.132C107.048 701.132 107.937 701.3 108.693 701.636C109.449 701.958 110.03 702.427 110.436 703.043C110.856 703.659 111.066 704.387 111.066 705.227C111.066 705.703 111.003 706.172 110.877 706.634C110.751 707.096 110.513 707.586 110.163 708.104C109.813 708.622 109.309 709.203 108.651 709.847L103.317 714.992L102.813 714.173H111.696V716H101.133ZM118.169 716.168C117.133 716.168 116.125 716.007 115.145 715.685C114.179 715.363 113.388 714.929 112.772 714.383L113.738 712.724C114.228 713.186 114.865 713.564 115.649 713.858C116.433 714.152 117.266 714.299 118.148 714.299C119.268 714.299 120.129 714.061 120.731 713.585C121.333 713.109 121.634 712.472 121.634 711.674C121.634 711.128 121.501 710.652 121.235 710.246C120.969 709.84 120.507 709.532 119.849 709.322C119.205 709.098 118.316 708.986 117.182 708.986H113.843L114.62 701.3H122.915V703.127H115.397L116.489 702.098L115.88 708.167L114.788 707.159H117.623C119.093 707.159 120.276 707.348 121.172 707.726C122.068 708.104 122.719 708.629 123.125 709.301C123.531 709.959 123.734 710.722 123.734 711.59C123.734 712.43 123.531 713.2 123.125 713.9C122.719 714.586 122.103 715.139 121.277 715.559C120.465 715.965 119.429 716.168 118.169 716.168ZM125.148 716V714.572L131.133 708.797C131.665 708.293 132.057 707.852 132.309 707.474C132.575 707.082 132.75 706.725 132.834 706.403C132.932 706.067 132.981 705.745 132.981 705.437C132.981 704.681 132.715 704.086 132.183 703.652C131.651 703.218 130.874 703.001 129.852 703.001C129.068 703.001 128.361 703.134 127.731 703.4C127.101 703.652 126.555 704.051 126.093 704.597L124.665 703.358C125.225 702.644 125.974 702.098 126.912 701.72C127.864 701.328 128.907 701.132 130.041 701.132C131.063 701.132 131.952 701.3 132.708 701.636C133.464 701.958 134.045 702.427 134.451 703.043C134.871 703.659 135.081 704.387 135.081 705.227C135.081 705.703 135.018 706.172 134.892 706.634C134.766 707.096 134.528 707.586 134.178 708.104C133.828 708.622 133.324 709.203 132.666 709.847L127.332 714.992L126.828 714.173H135.711V716H125.148Z" fill="#F2EFD2" fill-opacity="0.9"/>
<path d="M775.716 643.608H787.904V644.664L784.076 645.06V671.592L795.164 671.46L797.232 666.444H798.376L797.848 673H775.716V671.944L779.544 671.548V645.06L775.716 644.664V643.608ZM811.108 673.484C808.086 673.484 805.652 672.457 803.804 670.404C801.956 668.351 801.032 665.637 801.032 662.264C801.032 658.891 802 656.177 803.936 654.124C805.901 652.071 808.365 651.044 811.328 651.044C814.29 651.044 816.505 651.719 817.972 653.068C819.438 654.388 820.172 656.236 820.172 658.612C820.172 659.316 820.113 660.02 819.996 660.724H805.784V662.264C805.784 665.549 806.253 668.043 807.192 669.744C808.13 671.416 809.67 672.252 811.812 672.252C814.833 672.252 817.165 670.932 818.808 668.292C819.453 668.497 819.776 668.805 819.776 669.216C819.776 669.949 819.101 670.8 817.752 671.768C817.106 672.237 816.197 672.648 815.024 673C813.85 673.323 812.545 673.484 811.108 673.484ZM815.992 657.688C815.992 656.339 815.713 655.18 815.156 654.212C814.393 652.921 813.161 652.276 811.46 652.276C808.292 652.276 806.444 654.564 805.916 659.14H815.904C815.962 658.641 815.992 658.157 815.992 657.688ZM853.188 651.22C857.881 651.22 860.228 653.479 860.228 657.996C860.228 661.252 860.125 665.828 859.92 671.724L863.044 671.944V673H853.232V671.944L855.608 671.768C855.813 664.024 855.916 659.331 855.916 657.688C855.916 656.016 855.608 654.769 854.992 653.948C854.376 653.127 853.379 652.716 852 652.716C850.621 652.716 849.345 653.303 848.172 654.476C846.999 655.62 846.207 656.852 845.796 658.172C845.796 661.34 845.693 665.857 845.488 671.724L848.612 671.944V673H838.8V671.944L841.176 671.768C841.381 664.024 841.484 659.331 841.484 657.688C841.484 656.016 841.176 654.769 840.56 653.948C839.944 653.127 838.873 652.716 837.348 652.716C835.852 652.716 834.444 653.523 833.124 655.136C831.804 656.72 831.144 658.128 831.144 659.36V671.724L834.444 671.944V673H823.972V671.944L826.832 671.768V653.112L823.092 652.936V651.924L830.968 651.396L830.748 655.928H831.188C831.98 654.373 833.036 653.2 834.356 652.408C835.705 651.616 837.172 651.22 838.756 651.22C842.716 651.22 845.004 652.804 845.62 655.972V655.928C846.412 654.373 847.468 653.2 848.788 652.408C850.137 651.616 851.604 651.22 853.188 651.22ZM887.956 662.264C887.956 665.52 886.973 668.204 885.008 670.316C883.042 672.428 880.358 673.484 876.956 673.484C873.582 673.484 870.913 672.428 868.948 670.316C866.982 668.204 866 665.52 866 662.264C866 659.008 866.982 656.324 868.948 654.212C870.913 652.1 873.582 651.044 876.956 651.044C880.358 651.044 883.042 652.1 885.008 654.212C886.973 656.324 887.956 659.008 887.956 662.264ZM870.796 662.264C870.796 669.04 872.849 672.428 876.956 672.428C881.092 672.428 883.16 669.04 883.16 662.264C883.16 658.979 882.69 656.471 881.752 654.74C880.813 653.009 879.229 652.144 877 652.144C874.77 652.144 873.172 653.009 872.204 654.74C871.265 656.471 870.796 658.979 870.796 662.264ZM898.906 656.192C900.226 652.789 902.88 651.088 906.87 651.088C908.864 651.088 910.478 651.689 911.71 652.892C912.942 654.065 913.558 655.752 913.558 657.952C913.558 661.736 913.44 666.327 913.206 671.724L916.242 671.944V673H906.518V671.944L908.894 671.768C909.128 665.139 909.246 661.34 909.246 660.372C909.246 659.404 909.231 658.671 909.202 658.172C909.172 657.644 909.084 657.013 908.938 656.28C908.82 655.517 908.63 654.916 908.366 654.476C907.72 653.391 906.708 652.848 905.33 652.848C903.452 652.848 901.912 653.625 900.71 655.18C899.507 656.735 898.906 658.421 898.906 660.24V671.724L902.206 671.944V673H891.69V671.944L894.594 671.724V653.112L890.854 652.936V651.924L898.73 651.396L898.51 656.148L898.906 656.192ZM946.954 645.06C945.37 644.503 943.742 644.224 942.07 644.224C940.398 644.224 938.931 644.708 937.67 645.676C936.408 646.615 935.778 648.023 935.778 649.9C935.778 651.719 936.555 653.112 938.11 654.08C938.96 654.608 939.65 654.989 940.178 655.224C940.735 655.459 941.527 655.767 942.554 656.148C943.61 656.529 944.328 656.808 944.71 656.984C945.091 657.131 945.648 657.38 946.382 657.732C947.144 658.055 947.702 658.348 948.054 658.612C948.435 658.876 948.89 659.243 949.418 659.712C949.946 660.181 950.342 660.651 950.606 661.12C951.251 662.323 951.574 663.628 951.574 665.036C951.574 667.529 950.562 669.568 948.538 671.152C946.514 672.736 943.888 673.528 940.662 673.528C938.198 673.528 935.895 673.117 933.754 672.296C932.698 671.915 931.832 671.387 931.158 670.712C930.483 670.037 930.146 669.26 930.146 668.38C930.146 666.943 931.187 665.96 933.27 665.432C933.592 667.192 934.208 668.615 935.118 669.7C936.027 670.785 936.966 671.504 937.934 671.856C938.931 672.208 940.134 672.384 941.542 672.384C942.979 672.384 944.328 671.929 945.59 671.02C946.851 670.081 947.482 668.556 947.482 666.444C947.482 664.831 946.748 663.511 945.282 662.484C944.108 661.692 942.656 660.944 940.926 660.24C939.224 659.536 938.08 659.067 937.494 658.832C936.907 658.568 936.144 658.172 935.206 657.644C934.296 657.087 933.622 656.544 933.182 656.016C932.038 654.637 931.466 653.053 931.466 651.264C931.466 648.507 932.448 646.424 934.414 645.016C936.379 643.608 939.092 642.904 942.554 642.904C944.636 642.904 947.056 643.139 949.814 643.608V650.076H948.45L946.954 645.06ZM977.416 662.264C977.416 665.52 976.434 668.204 974.468 670.316C972.503 672.428 969.819 673.484 966.416 673.484C963.043 673.484 960.374 672.428 958.408 670.316C956.443 668.204 955.46 665.52 955.46 662.264C955.46 659.008 956.443 656.324 958.408 654.212C960.374 652.1 963.043 651.044 966.416 651.044C969.819 651.044 972.503 652.1 974.468 654.212C976.434 656.324 977.416 659.008 977.416 662.264ZM960.256 662.264C960.256 669.04 962.31 672.428 966.416 672.428C970.552 672.428 972.62 669.04 972.62 662.264C972.62 658.979 972.151 656.471 971.212 654.74C970.274 653.009 968.69 652.144 966.46 652.144C964.231 652.144 962.632 653.009 961.664 654.74C960.726 656.471 960.256 658.979 960.256 662.264ZM994.835 651C995.597 651 996.199 651.191 996.639 651.572C997.079 651.924 997.299 652.423 997.299 653.068C997.299 654.183 996.873 654.916 996.023 655.268C995.553 654.887 994.703 654.696 993.471 654.696C992.239 654.696 991.051 655.107 989.907 655.928C988.792 656.72 988.235 657.629 988.235 658.656V671.724L992.195 671.944V673H981.019V671.944L983.923 671.768V652.98L980.447 652.804V651.792L988.235 651.308L987.971 656.72H988.147C988.645 655.136 989.555 653.787 990.875 652.672C992.224 651.557 993.544 651 994.835 651ZM1010.98 672.208C1012.09 672.208 1013.05 671.973 1013.84 671.504C1014.66 671.035 1015.29 670.448 1015.73 669.744C1016.2 669.04 1016.57 668.145 1016.83 667.06C1017.21 665.329 1017.4 663.144 1017.4 660.504C1017.4 657.864 1016.95 655.855 1016.04 654.476C1015.13 653.097 1013.85 652.408 1012.21 652.408C1010.57 652.408 1009.06 653.112 1007.68 654.52C1006.33 655.899 1005.66 657.175 1005.66 658.348L1005.74 670.58C1007.15 671.665 1008.9 672.208 1010.98 672.208ZM1005.7 639.296L1005.66 648.712C1005.66 651.704 1005.58 653.831 1005.44 655.092H1005.83C1006.62 653.801 1007.72 652.804 1009.13 652.1C1010.54 651.396 1012.05 651.044 1013.66 651.044C1016.1 651.044 1018.14 651.895 1019.78 653.596C1021.42 655.268 1022.24 657.937 1022.24 661.604C1022.24 665.241 1021.26 668.145 1019.3 670.316C1017.33 672.457 1014.53 673.528 1010.89 673.528C1010.07 673.528 1009.12 673.396 1008.03 673.132C1006.98 672.868 1006.11 672.516 1005.44 672.076L1001.39 673.484V641.408L997.516 641.232L997.472 640.22L1005.7 639.296ZM1036.39 673.484C1033.37 673.484 1030.94 672.457 1029.09 670.404C1027.24 668.351 1026.32 665.637 1026.32 662.264C1026.32 658.891 1027.28 656.177 1029.22 654.124C1031.19 652.071 1033.65 651.044 1036.61 651.044C1039.58 651.044 1041.79 651.719 1043.26 653.068C1044.72 654.388 1045.46 656.236 1045.46 658.612C1045.46 659.316 1045.4 660.02 1045.28 660.724H1031.07V662.264C1031.07 665.549 1031.54 668.043 1032.48 669.744C1033.42 671.416 1034.96 672.252 1037.1 672.252C1040.12 672.252 1042.45 670.932 1044.09 668.292C1044.74 668.497 1045.06 668.805 1045.06 669.216C1045.06 669.949 1044.39 670.8 1043.04 671.768C1042.39 672.237 1041.48 672.648 1040.31 673C1039.14 673.323 1037.83 673.484 1036.39 673.484ZM1041.28 657.688C1041.28 656.339 1041 655.18 1040.44 654.212C1039.68 652.921 1038.45 652.276 1036.74 652.276C1033.58 652.276 1031.73 654.564 1031.2 659.14H1041.19C1041.25 658.641 1041.28 658.157 1041.28 657.688ZM1062.72 668.424C1062.72 668.512 1062.71 668.615 1062.68 668.732C1062.21 670.169 1061.42 671.328 1060.3 672.208C1059.22 673.059 1057.94 673.484 1056.47 673.484C1055.01 673.484 1053.77 673.073 1052.78 672.252C1051.81 671.401 1051.33 669.759 1051.33 667.324C1051.33 666.649 1051.4 661.765 1051.55 652.672H1048.51V651.528H1051.59L1051.63 645.06H1055.95L1055.81 651.528H1062.11V652.672H1055.81C1055.67 662.147 1055.59 667.691 1055.59 669.304C1055.59 671.269 1056.24 672.252 1057.53 672.252C1058.32 672.252 1059.14 671.797 1059.99 670.888C1060.87 669.979 1061.49 668.952 1061.84 667.808C1062.43 667.808 1062.72 668.013 1062.72 668.424Z" fill="#001309"/>
<path d="M785.463 717L787.269 702.3H788.76L786.954 717H785.463ZM777.567 713.22V711.687H790.524V713.22H777.567ZM780.003 717L781.83 702.3H783.321L781.494 717H780.003ZM778.239 707.613V706.08H791.196V707.613H778.239ZM795.861 709.251H803.442V711.057H795.861V709.251ZM796.071 717H793.971V702.3H804.345V704.127H796.071V717ZM805.852 717V715.572L811.837 709.797C812.369 709.293 812.761 708.852 813.013 708.474C813.279 708.082 813.454 707.725 813.538 707.403C813.636 707.067 813.685 706.745 813.685 706.437C813.685 705.681 813.419 705.086 812.887 704.652C812.355 704.218 811.578 704.001 810.556 704.001C809.772 704.001 809.065 704.134 808.435 704.4C807.805 704.652 807.259 705.051 806.797 705.597L805.369 704.358C805.929 703.644 806.678 703.098 807.616 702.72C808.568 702.328 809.611 702.132 810.745 702.132C811.767 702.132 812.656 702.3 813.412 702.636C814.168 702.958 814.749 703.427 815.155 704.043C815.575 704.659 815.785 705.387 815.785 706.227C815.785 706.703 815.722 707.172 815.596 707.634C815.47 708.096 815.232 708.586 814.882 709.104C814.532 709.622 814.028 710.203 813.37 710.847L808.036 715.992L807.532 715.173H816.415V717H805.852ZM821.25 708.642H828.81V710.427H821.25V708.642ZM821.439 715.173H830.007V717H819.339V702.3H829.713V704.127H821.439V715.173ZM835.297 709.251H842.878V711.057H835.297V709.251ZM835.507 717H833.407V702.3H843.781V704.127H835.507V717ZM846.737 717V702.3H852.932C854.5 702.3 855.879 702.608 857.069 703.224C858.273 703.84 859.204 704.701 859.862 705.807C860.534 706.913 860.87 708.194 860.87 709.65C860.87 711.106 860.534 712.387 859.862 713.493C859.204 714.599 858.273 715.46 857.069 716.076C855.879 716.692 854.5 717 852.932 717H846.737ZM848.837 715.173H852.806C854.024 715.173 855.074 714.942 855.956 714.48C856.852 714.018 857.545 713.374 858.035 712.548C858.525 711.708 858.77 710.742 858.77 709.65C858.77 708.544 858.525 707.578 858.035 706.752C857.545 705.926 856.852 705.282 855.956 704.82C855.074 704.358 854.024 704.127 852.806 704.127H848.837V715.173ZM862.454 717V715.572L868.439 709.797C868.971 709.293 869.363 708.852 869.615 708.474C869.881 708.082 870.056 707.725 870.14 707.403C870.238 707.067 870.287 706.745 870.287 706.437C870.287 705.681 870.021 705.086 869.489 704.652C868.957 704.218 868.18 704.001 867.158 704.001C866.374 704.001 865.667 704.134 865.037 704.4C864.407 704.652 863.861 705.051 863.399 705.597L861.971 704.358C862.531 703.644 863.28 703.098 864.218 702.72C865.17 702.328 866.213 702.132 867.347 702.132C868.369 702.132 869.258 702.3 870.014 702.636C870.77 702.958 871.351 703.427 871.757 704.043C872.177 704.659 872.387 705.387 872.387 706.227C872.387 706.703 872.324 707.172 872.198 707.634C872.072 708.096 871.834 708.586 871.484 709.104C871.134 709.622 870.63 710.203 869.972 710.847L864.638 715.992L864.134 715.173H873.017V717H862.454Z" fill="black" fill-opacity="0.76"/>
<rect x="1150" width="364" height="764" rx="40" fill="#001309"/>
<path d="M1202.04 649.956C1202.04 651.599 1201.68 653.007 1200.98 654.18C1200.28 655.353 1199.32 656.248 1198.12 656.864C1195.86 657.979 1193.16 658.536 1190.02 658.536C1189.26 658.536 1188.23 658.477 1186.94 658.36V670.724L1190.33 670.944V672H1179.11V670.944L1182.41 670.724V644.06L1178.58 643.576V642.52H1186.81L1192.05 642.388C1198.71 642.388 1202.04 644.911 1202.04 649.956ZM1188.88 657.172C1191.55 657.172 1193.6 656.527 1195.04 655.236C1196.48 653.945 1197.2 652.215 1197.2 650.044C1197.2 647.844 1196.68 646.245 1195.66 645.248C1194.63 644.221 1192.99 643.708 1190.73 643.708C1189.73 643.708 1188.47 643.767 1186.94 643.884V657.084C1187.38 657.143 1188.03 657.172 1188.88 657.172ZM1214.41 672.484C1211.39 672.484 1208.95 671.457 1207.1 669.404C1205.26 667.351 1204.33 664.637 1204.33 661.264C1204.33 657.891 1205.3 655.177 1207.24 653.124C1209.2 651.071 1211.67 650.044 1214.63 650.044C1217.59 650.044 1219.81 650.719 1221.27 652.068C1222.74 653.388 1223.47 655.236 1223.47 657.612C1223.47 658.316 1223.41 659.02 1223.3 659.724H1209.08V661.264C1209.08 664.549 1209.55 667.043 1210.49 668.744C1211.43 670.416 1212.97 671.252 1215.11 671.252C1218.13 671.252 1220.47 669.932 1222.11 667.292C1222.75 667.497 1223.08 667.805 1223.08 668.216C1223.08 668.949 1222.4 669.8 1221.05 670.768C1220.41 671.237 1219.5 671.648 1218.32 672C1217.15 672.323 1215.85 672.484 1214.41 672.484ZM1219.29 656.688C1219.29 655.339 1219.01 654.18 1218.46 653.212C1217.69 651.921 1216.46 651.276 1214.76 651.276C1211.59 651.276 1209.74 653.564 1209.22 658.14H1219.2C1219.26 657.641 1219.29 657.157 1219.29 656.688ZM1234.05 657.348V669.58C1235.46 670.665 1237.2 671.208 1239.28 671.208C1240.4 671.208 1241.35 670.973 1242.14 670.504C1242.97 670.035 1243.6 669.448 1244.04 668.744C1244.51 668.04 1244.86 667.145 1245.09 666.06C1245.5 664.329 1245.71 662.144 1245.71 659.504C1245.71 656.864 1245.25 654.855 1244.34 653.476C1243.44 652.097 1242.16 651.408 1240.52 651.408C1238.87 651.408 1237.38 652.112 1236.03 653.52C1234.71 654.899 1234.05 656.175 1234.05 657.348ZM1241.97 650.044C1244.4 650.044 1246.44 650.895 1248.08 652.596C1249.73 654.268 1250.55 656.937 1250.55 660.604C1250.55 664.241 1249.57 667.145 1247.6 669.316C1245.64 671.457 1242.83 672.528 1239.2 672.528C1237.29 672.528 1235.57 672.103 1234.05 671.252V681.724L1237.13 681.944V683H1227.01V681.944L1229.74 681.724V651.936L1225.95 651.76V650.748L1233.87 650.264L1233.74 654.092H1234.14C1234.93 652.801 1236.03 651.804 1237.44 651.1C1238.84 650.396 1240.36 650.044 1241.97 650.044ZM1261.21 657.348V669.58C1262.61 670.665 1264.36 671.208 1266.44 671.208C1267.56 671.208 1268.51 670.973 1269.3 670.504C1270.12 670.035 1270.75 669.448 1271.19 668.744C1271.66 668.04 1272.01 667.145 1272.25 666.06C1272.66 664.329 1272.87 662.144 1272.87 659.504C1272.87 656.864 1272.41 654.855 1271.5 653.476C1270.59 652.097 1269.32 651.408 1267.67 651.408C1266.03 651.408 1264.53 652.112 1263.19 653.52C1261.87 654.899 1261.21 656.175 1261.21 657.348ZM1269.13 650.044C1271.56 650.044 1273.6 650.895 1275.24 652.596C1276.88 654.268 1277.71 656.937 1277.71 660.604C1277.71 664.241 1276.72 667.145 1274.76 669.316C1272.79 671.457 1269.99 672.528 1266.35 672.528C1264.45 672.528 1262.73 672.103 1261.21 671.252V681.724L1264.29 681.944V683H1254.17V681.944L1256.89 681.724V651.936L1253.11 651.76V650.748L1261.03 650.264L1260.9 654.092H1261.29C1262.09 652.801 1263.19 651.804 1264.59 651.1C1266 650.396 1267.51 650.044 1269.13 650.044ZM1291.88 672.484C1288.86 672.484 1286.43 671.457 1284.58 669.404C1282.73 667.351 1281.81 664.637 1281.81 661.264C1281.81 657.891 1282.77 655.177 1284.71 653.124C1286.67 651.071 1289.14 650.044 1292.1 650.044C1295.06 650.044 1297.28 650.719 1298.75 652.068C1300.21 653.388 1300.95 655.236 1300.95 657.612C1300.95 658.316 1300.89 659.02 1300.77 659.724H1286.56V661.264C1286.56 664.549 1287.03 667.043 1287.97 668.744C1288.9 670.416 1290.44 671.252 1292.59 671.252C1295.61 671.252 1297.94 669.932 1299.58 667.292C1300.23 667.497 1300.55 667.805 1300.55 668.216C1300.55 668.949 1299.87 669.8 1298.53 670.768C1297.88 671.237 1296.97 671.648 1295.8 672C1294.62 672.323 1293.32 672.484 1291.88 672.484ZM1296.77 656.688C1296.77 655.339 1296.49 654.18 1295.93 653.212C1295.17 651.921 1293.93 651.276 1292.23 651.276C1289.07 651.276 1287.22 653.564 1286.69 658.14H1296.68C1296.74 657.641 1296.77 657.157 1296.77 656.688ZM1318.39 650C1319.15 650 1319.75 650.191 1320.19 650.572C1320.63 650.924 1320.85 651.423 1320.85 652.068C1320.85 653.183 1320.42 653.916 1319.57 654.268C1319.1 653.887 1318.25 653.696 1317.02 653.696C1315.79 653.696 1314.6 654.107 1313.46 654.928C1312.34 655.72 1311.79 656.629 1311.79 657.656V670.724L1315.75 670.944V672H1304.57V670.944L1307.47 670.768V651.98L1304 651.804V650.792L1311.79 650.308L1311.52 655.72H1311.7C1312.2 654.136 1313.11 652.787 1314.43 651.672C1315.77 650.557 1317.09 650 1318.39 650Z" fill="#F2EFD2"/>
<path d="M1185.46 716L1187.27 701.3H1188.76L1186.95 716H1185.46ZM1177.57 712.22V710.687H1190.52V712.22H1177.57ZM1180 716L1181.83 701.3H1183.32L1181.49 716H1180ZM1178.24 706.613V705.08H1191.2V706.613H1178.24ZM1198.78 716.168C1197.63 716.168 1196.6 715.874 1195.69 715.286C1194.8 714.698 1194.08 713.844 1193.55 712.724C1193.03 711.604 1192.77 710.246 1192.77 708.65C1192.77 707.054 1193.03 705.696 1193.55 704.576C1194.08 703.456 1194.8 702.602 1195.69 702.014C1196.6 701.426 1197.63 701.132 1198.78 701.132C1199.91 701.132 1200.94 701.426 1201.85 702.014C1202.76 702.602 1203.47 703.456 1203.99 704.576C1204.51 705.696 1204.76 707.054 1204.76 708.65C1204.76 710.246 1204.51 711.604 1203.99 712.724C1203.47 713.844 1202.76 714.698 1201.85 715.286C1200.94 715.874 1199.91 716.168 1198.78 716.168ZM1198.78 714.299C1199.55 714.299 1200.22 714.089 1200.8 713.669C1201.38 713.249 1201.84 712.619 1202.16 711.779C1202.5 710.939 1202.66 709.896 1202.66 708.65C1202.66 707.404 1202.5 706.361 1202.16 705.521C1201.84 704.681 1201.38 704.051 1200.8 703.631C1200.22 703.211 1199.55 703.001 1198.78 703.001C1198.01 703.001 1197.33 703.211 1196.74 703.631C1196.15 704.051 1195.69 704.681 1195.36 705.521C1195.03 706.361 1194.87 707.404 1194.87 708.65C1194.87 709.896 1195.03 710.939 1195.36 711.779C1195.69 712.619 1196.15 713.249 1196.74 713.669C1197.33 714.089 1198.01 714.299 1198.78 714.299ZM1212.79 716.168C1211.64 716.168 1210.61 715.874 1209.7 715.286C1208.8 714.698 1208.09 713.844 1207.56 712.724C1207.04 711.604 1206.78 710.246 1206.78 708.65C1206.78 707.054 1207.04 705.696 1207.56 704.576C1208.09 703.456 1208.8 702.602 1209.7 702.014C1210.61 701.426 1211.64 701.132 1212.79 701.132C1213.92 701.132 1214.94 701.426 1215.85 702.014C1216.76 702.602 1217.48 703.456 1217.99 704.576C1218.51 705.696 1218.77 707.054 1218.77 708.65C1218.77 710.246 1218.51 711.604 1217.99 712.724C1217.48 713.844 1216.76 714.698 1215.85 715.286C1214.94 715.874 1213.92 716.168 1212.79 716.168ZM1212.79 714.299C1213.56 714.299 1214.23 714.089 1214.8 713.669C1215.39 713.249 1215.85 712.619 1216.17 711.779C1216.5 710.939 1216.67 709.896 1216.67 708.65C1216.67 707.404 1216.5 706.361 1216.17 705.521C1215.85 704.681 1215.39 704.051 1214.8 703.631C1214.23 703.211 1213.56 703.001 1212.79 703.001C1212.02 703.001 1211.34 703.211 1210.75 703.631C1210.16 704.051 1209.7 704.681 1209.36 705.521C1209.04 706.361 1208.88 707.404 1208.88 708.65C1208.88 709.896 1209.04 710.939 1209.36 711.779C1209.7 712.619 1210.16 713.249 1210.75 713.669C1211.34 714.089 1212.02 714.299 1212.79 714.299ZM1223.27 716V702.14L1224.17 703.127H1219.95V701.3H1225.34V716H1223.27ZM1233.05 716.168C1232.02 716.168 1231.01 716.007 1230.03 715.685C1229.06 715.363 1228.27 714.929 1227.66 714.383L1228.62 712.724C1229.11 713.186 1229.75 713.564 1230.53 713.858C1231.32 714.152 1232.16 714.299 1233.05 714.299C1234.15 714.299 1234.99 714.068 1235.59 713.606C1236.21 713.13 1236.52 712.493 1236.52 711.695C1236.52 710.925 1236.22 710.309 1235.64 709.847C1235.06 709.371 1234.15 709.133 1232.89 709.133H1231.71V707.663L1236.08 702.287L1236.37 703.127H1228.33V701.3H1238.03V702.728L1233.68 708.083L1232.59 707.432H1233.28C1235.06 707.432 1236.39 707.831 1237.27 708.629C1238.17 709.427 1238.62 710.442 1238.62 711.674C1238.62 712.5 1238.42 713.256 1238.01 713.942C1237.6 714.628 1236.99 715.174 1236.16 715.58C1235.35 715.972 1234.31 716.168 1233.05 716.168ZM1246.58 716.168C1245.44 716.168 1244.41 715.874 1243.5 715.286C1242.6 714.698 1241.89 713.844 1241.35 712.724C1240.84 711.604 1240.58 710.246 1240.58 708.65C1240.58 707.054 1240.84 705.696 1241.35 704.576C1241.89 703.456 1242.6 702.602 1243.5 702.014C1244.41 701.426 1245.44 701.132 1246.58 701.132C1247.72 701.132 1248.74 701.426 1249.65 702.014C1250.56 702.602 1251.27 703.456 1251.79 704.576C1252.31 705.696 1252.57 707.054 1252.57 708.65C1252.57 710.246 1252.31 711.604 1251.79 712.724C1251.27 713.844 1250.56 714.698 1249.65 715.286C1248.74 715.874 1247.72 716.168 1246.58 716.168ZM1246.58 714.299C1247.35 714.299 1248.03 714.089 1248.6 713.669C1249.19 713.249 1249.64 712.619 1249.96 711.779C1250.3 710.939 1250.47 709.896 1250.47 708.65C1250.47 707.404 1250.3 706.361 1249.96 705.521C1249.64 704.681 1249.19 704.051 1248.6 703.631C1248.03 703.211 1247.35 703.001 1246.58 703.001C1245.81 703.001 1245.13 703.211 1244.55 703.631C1243.96 704.051 1243.5 704.681 1243.16 705.521C1242.84 706.361 1242.68 707.404 1242.68 708.65C1242.68 709.896 1242.84 710.939 1243.16 711.779C1243.5 712.619 1243.96 713.249 1244.55 713.669C1245.13 714.089 1245.81 714.299 1246.58 714.299ZM1259.35 701.132C1260.68 701.132 1261.8 701.419 1262.71 701.993C1263.64 702.567 1264.34 703.4 1264.81 704.492C1265.29 705.57 1265.53 706.893 1265.53 708.461C1265.53 710.127 1265.23 711.534 1264.64 712.682C1264.06 713.83 1263.24 714.698 1262.21 715.286C1261.17 715.874 1259.96 716.168 1258.57 716.168C1257.89 716.168 1257.22 716.098 1256.58 715.958C1255.95 715.818 1255.4 715.601 1254.92 715.307L1255.72 713.669C1256.11 713.921 1256.54 714.103 1257.02 714.215C1257.51 714.313 1258.02 714.362 1258.55 714.362C1260.04 714.362 1261.22 713.9 1262.1 712.976C1262.98 712.038 1263.43 710.652 1263.43 708.818C1263.43 708.524 1263.41 708.174 1263.38 707.768C1263.36 707.362 1263.29 706.963 1263.19 706.571L1263.89 707.285C1263.69 707.929 1263.36 708.475 1262.9 708.923C1262.45 709.357 1261.91 709.686 1261.26 709.91C1260.63 710.12 1259.94 710.225 1259.18 710.225C1258.22 710.225 1257.36 710.043 1256.6 709.679C1255.84 709.315 1255.25 708.804 1254.82 708.146C1254.38 707.474 1254.16 706.683 1254.16 705.773C1254.16 704.821 1254.39 704.002 1254.84 703.316C1255.3 702.616 1255.92 702.077 1256.71 701.699C1257.5 701.321 1258.39 701.132 1259.35 701.132ZM1259.44 702.833C1258.81 702.833 1258.25 702.952 1257.76 703.19C1257.27 703.428 1256.88 703.757 1256.6 704.177C1256.33 704.597 1256.2 705.101 1256.2 705.689C1256.2 706.557 1256.5 707.25 1257.1 707.768C1257.71 708.272 1258.52 708.524 1259.54 708.524C1260.21 708.524 1260.8 708.398 1261.3 708.146C1261.82 707.894 1262.22 707.551 1262.5 707.117C1262.8 706.683 1262.94 706.2 1262.94 705.668C1262.94 705.15 1262.81 704.681 1262.54 704.261C1262.28 703.841 1261.89 703.498 1261.37 703.232C1260.85 702.966 1260.21 702.833 1259.44 702.833Z" fill="#F2EFD2" fill-opacity="0.9"/>
</svg>
