<svg width="1514" height="764" viewBox="0 0 1514 764" fill="none" xmlns="http://www.w3.org/2000/svg">
<rect x="748" width="364" height="764" rx="40" fill="#F2EFD2"/>
<rect width="710" height="364" rx="40" fill="#317250"/>
<path d="M64.744 263.204C65.8587 263.38 66.8707 263.835 67.78 264.568C68.7187 265.301 69.452 266.211 69.98 267.296C70.5373 268.381 70.816 269.54 70.816 270.772C70.816 272.327 70.42 273.735 69.628 274.996C68.836 276.228 67.6773 277.211 66.152 277.944C64.656 278.648 62.8813 279 60.828 279H49.388V248.332H60.388C62.4707 248.332 64.2453 248.684 65.712 249.388C67.1787 250.063 68.2787 250.987 69.012 252.16C69.7453 253.333 70.112 254.653 70.112 256.12C70.112 257.939 69.6133 259.449 68.616 260.652C67.648 261.825 66.3573 262.676 64.744 263.204ZM53.392 261.576H60.124C62.0013 261.576 63.4533 261.136 64.48 260.256C65.5067 259.376 66.02 258.159 66.02 256.604C66.02 255.049 65.5067 253.832 64.48 252.952C63.4533 252.072 61.972 251.632 60.036 251.632H53.392V261.576ZM60.476 275.7C62.4707 275.7 64.0253 275.231 65.14 274.292C66.2547 273.353 66.812 272.048 66.812 270.376C66.812 268.675 66.2253 267.34 65.052 266.372C63.8787 265.375 62.3093 264.876 60.344 264.876H53.392V275.7H60.476ZM74.8764 266.856C74.8764 264.392 75.375 262.236 76.3724 260.388C77.3697 258.511 78.7337 257.059 80.4644 256.032C82.2244 255.005 84.175 254.492 86.3164 254.492C88.4284 254.492 90.2617 254.947 91.8164 255.856C93.371 256.765 94.5297 257.909 95.2924 259.288V254.888H99.3404V279H95.2924V274.512C94.5004 275.92 93.3124 277.093 91.7284 278.032C90.1737 278.941 88.355 279.396 86.2724 279.396C84.131 279.396 82.195 278.868 80.4644 277.812C78.7337 276.756 77.3697 275.275 76.3724 273.368C75.375 271.461 74.8764 269.291 74.8764 266.856ZM95.2924 266.9C95.2924 265.081 94.9257 263.497 94.1924 262.148C93.459 260.799 92.4617 259.772 91.2004 259.068C89.9684 258.335 88.6044 257.968 87.1084 257.968C85.6124 257.968 84.2484 258.32 83.0164 259.024C81.7844 259.728 80.8017 260.755 80.0684 262.104C79.335 263.453 78.9684 265.037 78.9684 266.856C78.9684 268.704 79.335 270.317 80.0684 271.696C80.8017 273.045 81.7844 274.087 83.0164 274.82C84.2484 275.524 85.6124 275.876 87.1084 275.876C88.6044 275.876 89.9684 275.524 91.2004 274.82C92.4617 274.087 93.459 273.045 94.1924 271.696C94.9257 270.317 95.2924 268.719 95.2924 266.9ZM114.643 279.396C112.795 279.396 111.137 279.088 109.671 278.472C108.204 277.827 107.045 276.947 106.195 275.832C105.344 274.688 104.875 273.383 104.787 271.916H108.923C109.04 273.119 109.597 274.101 110.595 274.864C111.621 275.627 112.956 276.008 114.599 276.008C116.124 276.008 117.327 275.671 118.207 274.996C119.087 274.321 119.527 273.471 119.527 272.444C119.527 271.388 119.057 270.611 118.119 270.112C117.18 269.584 115.728 269.071 113.763 268.572C111.973 268.103 110.507 267.633 109.363 267.164C108.248 266.665 107.28 265.947 106.459 265.008C105.667 264.04 105.271 262.779 105.271 261.224C105.271 259.992 105.637 258.863 106.371 257.836C107.104 256.809 108.145 256.003 109.495 255.416C110.844 254.8 112.384 254.492 114.115 254.492C116.784 254.492 118.94 255.167 120.583 256.516C122.225 257.865 123.105 259.713 123.223 262.06H119.219C119.131 260.799 118.617 259.787 117.679 259.024C116.769 258.261 115.537 257.88 113.983 257.88C112.545 257.88 111.401 258.188 110.551 258.804C109.7 259.42 109.275 260.227 109.275 261.224C109.275 262.016 109.524 262.676 110.023 263.204C110.551 263.703 111.196 264.113 111.959 264.436C112.751 264.729 113.836 265.067 115.215 265.448C116.945 265.917 118.353 266.387 119.439 266.856C120.524 267.296 121.448 267.971 122.211 268.88C123.003 269.789 123.413 270.977 123.443 272.444C123.443 273.764 123.076 274.952 122.343 276.008C121.609 277.064 120.568 277.9 119.219 278.516C117.899 279.103 116.373 279.396 114.643 279.396ZM131.163 250.972C130.4 250.972 129.755 250.708 129.227 250.18C128.699 249.652 128.435 249.007 128.435 248.244C128.435 247.481 128.699 246.836 129.227 246.308C129.755 245.78 130.4 245.516 131.163 245.516C131.896 245.516 132.512 245.78 133.011 246.308C133.539 246.836 133.803 247.481 133.803 248.244C133.803 249.007 133.539 249.652 133.011 250.18C132.512 250.708 131.896 250.972 131.163 250.972ZM133.099 254.888V279H129.095V254.888H133.099ZM143.927 246.44V279H139.923V246.44H143.927Z" fill="#F2EFD2"/>
<path d="M61.818 305.382L61.041 309.015H63.813V311.115H60.6L59.76 315H57.471L58.311 311.115H54.195L53.355 315H51.066L51.906 311.115H48.651V309.015H52.347L53.124 305.382H49.89V303.282H53.565L54.384 299.46H56.673L55.854 303.282H59.97L60.789 299.46H63.078L62.259 303.282H65.052V305.382H61.818ZM59.529 305.382H55.413L54.636 309.015H58.752L59.529 305.382ZM67.5315 303.471C67.6155 302.169 68.1125 301.154 69.0225 300.426C69.9465 299.698 71.1225 299.334 72.5505 299.334C73.5305 299.334 74.3775 299.509 75.0915 299.859C75.8055 300.209 76.3445 300.685 76.7085 301.287C77.0725 301.889 77.2545 302.568 77.2545 303.324C77.2545 304.192 77.0235 304.934 76.5615 305.55C76.0995 306.166 75.5465 306.579 74.9025 306.789V306.873C75.7285 307.125 76.3725 307.587 76.8345 308.259C77.2965 308.917 77.5275 309.764 77.5275 310.8C77.5275 311.626 77.3385 312.361 76.9605 313.005C76.5825 313.649 76.0225 314.16 75.2805 314.538C74.5385 314.902 73.6495 315.084 72.6135 315.084C71.1015 315.084 69.8555 314.699 68.8755 313.929C67.9095 313.145 67.3915 312.025 67.3215 310.569H69.6315C69.6875 311.311 69.9745 311.92 70.4925 312.396C71.0105 312.858 71.7105 313.089 72.5925 313.089C73.4465 313.089 74.1045 312.858 74.5665 312.396C75.0285 311.92 75.2595 311.311 75.2595 310.569C75.2595 309.589 74.9445 308.896 74.3145 308.49C73.6985 308.07 72.7465 307.86 71.4585 307.86H70.9125V305.886H71.4795C72.6135 305.872 73.4745 305.683 74.0625 305.319C74.6645 304.955 74.9655 304.381 74.9655 303.597C74.9655 302.925 74.7485 302.393 74.3145 302.001C73.8805 301.595 73.2645 301.392 72.4665 301.392C71.6825 301.392 71.0735 301.595 70.6395 302.001C70.2055 302.393 69.9465 302.883 69.8625 303.471H67.5315ZM79.7272 301.875V299.691H84.0952V315H81.6802V301.875H79.7272ZM97.086 301.539L91.248 315H88.833L94.734 301.791H86.964V299.754H97.086V301.539ZM100.458 311.745C101.802 310.583 102.859 309.631 103.629 308.889C104.413 308.133 105.064 307.349 105.582 306.537C106.1 305.725 106.359 304.913 106.359 304.101C106.359 303.261 106.156 302.603 105.75 302.127C105.358 301.651 104.735 301.413 103.881 301.413C103.055 301.413 102.411 301.679 101.949 302.211C101.501 302.729 101.263 303.429 101.235 304.311H98.925C98.967 302.715 99.443 301.497 100.353 300.657C101.277 299.803 102.446 299.376 103.86 299.376C105.386 299.376 106.576 299.796 107.43 300.636C108.298 301.476 108.732 302.596 108.732 303.996C108.732 305.004 108.473 305.977 107.955 306.915C107.451 307.839 106.842 308.672 106.128 309.414C105.428 310.142 104.532 310.989 103.44 311.955L102.495 312.795H109.152V314.79H98.946V313.047L100.458 311.745ZM121.125 301.749H114.09V305.928C114.384 305.536 114.818 305.207 115.392 304.941C115.98 304.675 116.603 304.542 117.261 304.542C118.437 304.542 119.389 304.794 120.117 305.298C120.859 305.802 121.384 306.439 121.692 307.209C122.014 307.979 122.175 308.791 122.175 309.645C122.175 310.681 121.972 311.605 121.566 312.417C121.174 313.215 120.579 313.845 119.781 314.307C118.997 314.769 118.031 315 116.883 315C115.357 315 114.132 314.622 113.208 313.866C112.284 313.11 111.731 312.109 111.549 310.863H113.88C114.034 311.521 114.377 312.046 114.909 312.438C115.441 312.816 116.106 313.005 116.904 313.005C117.898 313.005 118.64 312.704 119.13 312.102C119.634 311.5 119.886 310.702 119.886 309.708C119.886 308.7 119.634 307.93 119.13 307.398C118.626 306.852 117.884 306.579 116.904 306.579C116.218 306.579 115.637 306.754 115.161 307.104C114.699 307.44 114.363 307.902 114.153 308.49H111.885V299.649H121.125V301.749ZM124.667 307.146C124.667 304.724 125.073 302.834 125.885 301.476C126.711 300.104 128.125 299.418 130.127 299.418C132.129 299.418 133.536 300.104 134.348 301.476C135.174 302.834 135.587 304.724 135.587 307.146C135.587 309.596 135.174 311.514 134.348 312.9C133.536 314.272 132.129 314.958 130.127 314.958C128.125 314.958 126.711 314.272 125.885 312.9C125.073 311.514 124.667 309.596 124.667 307.146ZM133.235 307.146C133.235 306.012 133.158 305.053 133.004 304.269C132.864 303.485 132.57 302.848 132.122 302.358C131.674 301.854 131.009 301.602 130.127 301.602C129.245 301.602 128.58 301.854 128.132 302.358C127.684 302.848 127.383 303.485 127.229 304.269C127.089 305.053 127.019 306.012 127.019 307.146C127.019 308.322 127.089 309.309 127.229 310.107C127.369 310.905 127.663 311.549 128.111 312.039C128.573 312.529 129.245 312.774 130.127 312.774C131.009 312.774 131.674 312.529 132.122 312.039C132.584 311.549 132.885 310.905 133.025 310.107C133.165 309.309 133.235 308.322 133.235 307.146Z" fill="#F2EFD2" fill-opacity="0.9"/>
<rect y="400" width="710" height="364" rx="40" fill="#E35252"/>
<path d="M68.264 648.332V651.588H59.904V679H55.9V651.588H47.496V648.332H68.264ZM83.7087 679.396C81.45 679.396 79.3967 678.883 77.5487 677.856C75.73 676.829 74.2927 675.377 73.2367 673.5C72.21 671.593 71.6967 669.393 71.6967 666.9C71.6967 664.436 72.2247 662.265 73.2807 660.388C74.366 658.481 75.8327 657.029 77.6807 656.032C79.5287 655.005 81.5967 654.492 83.8847 654.492C86.1727 654.492 88.2407 655.005 90.0887 656.032C91.9367 657.029 93.3887 658.467 94.4447 660.344C95.53 662.221 96.0727 664.407 96.0727 666.9C96.0727 669.393 95.5154 671.593 94.4007 673.5C93.3154 675.377 91.834 676.829 89.9567 677.856C88.0794 678.883 85.9967 679.396 83.7087 679.396ZM83.7087 675.876C85.146 675.876 86.4954 675.539 87.7567 674.864C89.018 674.189 90.03 673.177 90.7927 671.828C91.5847 670.479 91.9807 668.836 91.9807 666.9C91.9807 664.964 91.5994 663.321 90.8367 661.972C90.074 660.623 89.0767 659.625 87.8447 658.98C86.6127 658.305 85.278 657.968 83.8407 657.968C82.374 657.968 81.0247 658.305 79.7927 658.98C78.59 659.625 77.622 660.623 76.8887 661.972C76.1554 663.321 75.7887 664.964 75.7887 666.9C75.7887 668.865 76.1407 670.523 76.8447 671.872C77.578 673.221 78.546 674.233 79.7487 674.908C80.9514 675.553 82.2714 675.876 83.7087 675.876ZM130.333 654.448C132.211 654.448 133.883 654.844 135.349 655.636C136.816 656.399 137.975 657.557 138.825 659.112C139.676 660.667 140.101 662.559 140.101 664.788V679H136.141V665.36C136.141 662.955 135.54 661.121 134.337 659.86C133.164 658.569 131.565 657.924 129.541 657.924C127.459 657.924 125.801 658.599 124.569 659.948C123.337 661.268 122.721 663.189 122.721 665.712V679H118.761V665.36C118.761 662.955 118.16 661.121 116.957 659.86C115.784 658.569 114.185 657.924 112.161 657.924C110.079 657.924 108.421 658.599 107.189 659.948C105.957 661.268 105.341 663.189 105.341 665.712V679H101.337V654.888H105.341V658.364C106.133 657.103 107.189 656.135 108.509 655.46C109.859 654.785 111.34 654.448 112.953 654.448C114.977 654.448 116.767 654.903 118.321 655.812C119.876 656.721 121.035 658.056 121.797 659.816C122.472 658.115 123.587 656.795 125.141 655.856C126.696 654.917 128.427 654.448 130.333 654.448ZM145.173 666.856C145.173 664.392 145.672 662.236 146.669 660.388C147.667 658.511 149.031 657.059 150.761 656.032C152.521 655.005 154.472 654.492 156.613 654.492C158.725 654.492 160.559 654.947 162.113 655.856C163.668 656.765 164.827 657.909 165.589 659.288V654.888H169.637V679H165.589V674.512C164.797 675.92 163.609 677.093 162.025 678.032C160.471 678.941 158.652 679.396 156.569 679.396C154.428 679.396 152.492 678.868 150.761 677.812C149.031 676.756 147.667 675.275 146.669 673.368C145.672 671.461 145.173 669.291 145.173 666.856ZM165.589 666.9C165.589 665.081 165.223 663.497 164.489 662.148C163.756 660.799 162.759 659.772 161.497 659.068C160.265 658.335 158.901 657.968 157.405 657.968C155.909 657.968 154.545 658.32 153.313 659.024C152.081 659.728 151.099 660.755 150.365 662.104C149.632 663.453 149.265 665.037 149.265 666.856C149.265 668.704 149.632 670.317 150.365 671.696C151.099 673.045 152.081 674.087 153.313 674.82C154.545 675.524 155.909 675.876 157.405 675.876C158.901 675.876 160.265 675.524 161.497 674.82C162.759 674.087 163.756 673.045 164.489 671.696C165.223 670.317 165.589 668.719 165.589 666.9ZM181.288 658.188V672.4C181.288 673.573 181.537 674.409 182.036 674.908C182.534 675.377 183.4 675.612 184.632 675.612H187.58V679H183.972C181.742 679 180.07 678.487 178.956 677.46C177.841 676.433 177.284 674.747 177.284 672.4V658.188H174.16V654.888H177.284V648.816H181.288V654.888H187.58V658.188H181.288ZM202.947 679.396C200.688 679.396 198.635 678.883 196.787 677.856C194.968 676.829 193.531 675.377 192.475 673.5C191.448 671.593 190.935 669.393 190.935 666.9C190.935 664.436 191.463 662.265 192.519 660.388C193.604 658.481 195.071 657.029 196.919 656.032C198.767 655.005 200.835 654.492 203.123 654.492C205.411 654.492 207.479 655.005 209.327 656.032C211.175 657.029 212.627 658.467 213.683 660.344C214.768 662.221 215.311 664.407 215.311 666.9C215.311 669.393 214.754 671.593 213.639 673.5C212.554 675.377 211.072 676.829 209.195 677.856C207.318 678.883 205.235 679.396 202.947 679.396ZM202.947 675.876C204.384 675.876 205.734 675.539 206.995 674.864C208.256 674.189 209.268 673.177 210.031 671.828C210.823 670.479 211.219 668.836 211.219 666.9C211.219 664.964 210.838 663.321 210.075 661.972C209.312 660.623 208.315 659.625 207.083 658.98C205.851 658.305 204.516 657.968 203.079 657.968C201.612 657.968 200.263 658.305 199.031 658.98C197.828 659.625 196.86 660.623 196.127 661.972C195.394 663.321 195.027 664.964 195.027 666.9C195.027 668.865 195.379 670.523 196.083 671.872C196.816 673.221 197.784 674.233 198.987 674.908C200.19 675.553 201.51 675.876 202.947 675.876Z" fill="#F2EFD2"/>
<path d="M61.818 705.382L61.041 709.015H63.813V711.115H60.6L59.76 715H57.471L58.311 711.115H54.195L53.355 715H51.066L51.906 711.115H48.651V709.015H52.347L53.124 705.382H49.89V703.282H53.565L54.384 699.46H56.673L55.854 703.282H59.97L60.789 699.46H63.078L62.259 703.282H65.052V705.382H61.818ZM59.529 705.382H55.413L54.636 709.015H58.752L59.529 705.382ZM70.2825 702.337V706.621H75.3225V708.574H70.2825V713.047H75.9525V715H67.8885V700.384H75.9525V702.337H70.2825ZM78.5442 703.471C78.6282 702.169 79.1252 701.154 80.0352 700.426C80.9592 699.698 82.1352 699.334 83.5632 699.334C84.5432 699.334 85.3902 699.509 86.1042 699.859C86.8182 700.209 87.3572 700.685 87.7212 701.287C88.0852 701.889 88.2672 702.568 88.2672 703.324C88.2672 704.192 88.0362 704.934 87.5742 705.55C87.1122 706.166 86.5592 706.579 85.9152 706.789V706.873C86.7412 707.125 87.3852 707.587 87.8472 708.259C88.3092 708.917 88.5402 709.764 88.5402 710.8C88.5402 711.626 88.3512 712.361 87.9732 713.005C87.5952 713.649 87.0352 714.16 86.2932 714.538C85.5512 714.902 84.6622 715.084 83.6262 715.084C82.1142 715.084 80.8682 714.699 79.8882 713.929C78.9222 713.145 78.4042 712.025 78.3342 710.569H80.6442C80.7002 711.311 80.9872 711.92 81.5052 712.396C82.0232 712.858 82.7232 713.089 83.6052 713.089C84.4592 713.089 85.1172 712.858 85.5792 712.396C86.0412 711.92 86.2722 711.311 86.2722 710.569C86.2722 709.589 85.9572 708.896 85.3272 708.49C84.7112 708.07 83.7592 707.86 82.4712 707.86H81.9252V705.886H82.4922C83.6262 705.872 84.4872 705.683 85.0752 705.319C85.6772 704.955 85.9782 704.381 85.9782 703.597C85.9782 702.925 85.7612 702.393 85.3272 702.001C84.8932 701.595 84.2772 701.392 83.4792 701.392C82.6952 701.392 82.0862 701.595 81.6522 702.001C81.2182 702.393 80.9592 702.883 80.8752 703.471H78.5442ZM100.925 701.749H93.8899V705.928C94.1839 705.536 94.6179 705.207 95.1919 704.941C95.7799 704.675 96.4029 704.542 97.0609 704.542C98.2369 704.542 99.1889 704.794 99.9169 705.298C100.659 705.802 101.184 706.439 101.492 707.209C101.814 707.979 101.975 708.791 101.975 709.645C101.975 710.681 101.772 711.605 101.366 712.417C100.974 713.215 100.379 713.845 99.5809 714.307C98.7969 714.769 97.8309 715 96.6829 715C95.1569 715 93.9319 714.622 93.0079 713.866C92.0839 713.11 91.5309 712.109 91.3489 710.863H93.6799C93.8339 711.521 94.1769 712.046 94.7089 712.438C95.2409 712.816 95.9059 713.005 96.7039 713.005C97.6979 713.005 98.4399 712.704 98.9299 712.102C99.4339 711.5 99.6859 710.702 99.6859 709.708C99.6859 708.7 99.4339 707.93 98.9299 707.398C98.4259 706.852 97.6839 706.579 96.7039 706.579C96.0179 706.579 95.4369 706.754 94.9609 707.104C94.4989 707.44 94.1629 707.902 93.9529 708.49H91.6849V699.649H100.925V701.749ZM105.79 711.745C107.134 710.583 108.191 709.631 108.961 708.889C109.745 708.133 110.396 707.349 110.914 706.537C111.432 705.725 111.691 704.913 111.691 704.101C111.691 703.261 111.488 702.603 111.082 702.127C110.69 701.651 110.067 701.413 109.213 701.413C108.387 701.413 107.743 701.679 107.281 702.211C106.833 702.729 106.595 703.429 106.567 704.311H104.257C104.299 702.715 104.775 701.497 105.685 700.657C106.609 699.803 107.778 699.376 109.192 699.376C110.718 699.376 111.908 699.796 112.762 700.636C113.63 701.476 114.064 702.596 114.064 703.996C114.064 705.004 113.805 705.977 113.287 706.915C112.783 707.839 112.174 708.672 111.46 709.414C110.76 710.142 109.864 710.989 108.772 711.955L107.827 712.795H114.484V714.79H104.278V713.047L105.79 711.745ZM126.457 701.749H119.422V705.928C119.716 705.536 120.15 705.207 120.724 704.941C121.312 704.675 121.935 704.542 122.593 704.542C123.769 704.542 124.721 704.794 125.449 705.298C126.191 705.802 126.716 706.439 127.024 707.209C127.346 707.979 127.507 708.791 127.507 709.645C127.507 710.681 127.304 711.605 126.898 712.417C126.506 713.215 125.911 713.845 125.113 714.307C124.329 714.769 123.363 715 122.215 715C120.689 715 119.464 714.622 118.54 713.866C117.616 713.11 117.063 712.109 116.881 710.863H119.212C119.366 711.521 119.709 712.046 120.241 712.438C120.773 712.816 121.438 713.005 122.236 713.005C123.23 713.005 123.972 712.704 124.462 712.102C124.966 711.5 125.218 710.702 125.218 709.708C125.218 708.7 124.966 707.93 124.462 707.398C123.958 706.852 123.216 706.579 122.236 706.579C121.55 706.579 120.969 706.754 120.493 707.104C120.031 707.44 119.695 707.902 119.485 708.49H117.217V699.649H126.457V701.749ZM131.322 711.745C132.666 710.583 133.723 709.631 134.493 708.889C135.277 708.133 135.928 707.349 136.446 706.537C136.964 705.725 137.223 704.913 137.223 704.101C137.223 703.261 137.02 702.603 136.614 702.127C136.222 701.651 135.599 701.413 134.745 701.413C133.919 701.413 133.275 701.679 132.813 702.211C132.365 702.729 132.127 703.429 132.099 704.311H129.789C129.831 702.715 130.307 701.497 131.217 700.657C132.141 699.803 133.31 699.376 134.724 699.376C136.25 699.376 137.44 699.796 138.294 700.636C139.162 701.476 139.596 702.596 139.596 703.996C139.596 705.004 139.337 705.977 138.819 706.915C138.315 707.839 137.706 708.672 136.992 709.414C136.292 710.142 135.396 710.989 134.304 711.955L133.359 712.795H140.016V714.79H129.81V713.047L131.322 711.745Z" fill="#F2EFD2" fill-opacity="0.9"/>
<path d="M781.392 675.744H792.128V679H777.388V648.332H781.392V675.744ZM818.38 666.02C818.38 666.783 818.336 667.589 818.248 668.44H798.976C799.123 670.816 799.93 672.679 801.396 674.028C802.892 675.348 804.696 676.008 806.808 676.008C808.539 676.008 809.976 675.612 811.12 674.82C812.294 673.999 813.115 672.913 813.584 671.564H817.896C817.251 673.881 815.96 675.773 814.024 677.24C812.088 678.677 809.683 679.396 806.808 679.396C804.52 679.396 802.467 678.883 800.648 677.856C798.859 676.829 797.451 675.377 796.424 673.5C795.398 671.593 794.884 669.393 794.884 666.9C794.884 664.407 795.383 662.221 796.38 660.344C797.378 658.467 798.771 657.029 800.56 656.032C802.379 655.005 804.462 654.492 806.808 654.492C809.096 654.492 811.12 654.991 812.88 655.988C814.64 656.985 815.99 658.364 816.928 660.124C817.896 661.855 818.38 663.82 818.38 666.02ZM814.244 665.184C814.244 663.659 813.907 662.353 813.232 661.268C812.558 660.153 811.634 659.317 810.46 658.76C809.316 658.173 808.04 657.88 806.632 657.88C804.608 657.88 802.878 658.525 801.44 659.816C800.032 661.107 799.226 662.896 799.02 665.184H814.244ZM852.661 654.448C854.539 654.448 856.211 654.844 857.677 655.636C859.144 656.399 860.303 657.557 861.153 659.112C862.004 660.667 862.429 662.559 862.429 664.788V679H858.469V665.36C858.469 662.955 857.868 661.121 856.665 659.86C855.492 658.569 853.893 657.924 851.869 657.924C849.787 657.924 848.129 658.599 846.897 659.948C845.665 661.268 845.049 663.189 845.049 665.712V679H841.089V665.36C841.089 662.955 840.488 661.121 839.285 659.86C838.112 658.569 836.513 657.924 834.489 657.924C832.407 657.924 830.749 658.599 829.517 659.948C828.285 661.268 827.669 663.189 827.669 665.712V679H823.665V654.888H827.669V658.364C828.461 657.103 829.517 656.135 830.837 655.46C832.187 654.785 833.668 654.448 835.281 654.448C837.305 654.448 839.095 654.903 840.649 655.812C842.204 656.721 843.363 658.056 844.125 659.816C844.8 658.115 845.915 656.795 847.469 655.856C849.024 654.917 850.755 654.448 852.661 654.448ZM879.513 679.396C877.255 679.396 875.201 678.883 873.353 677.856C871.535 676.829 870.097 675.377 869.041 673.5C868.015 671.593 867.501 669.393 867.501 666.9C867.501 664.436 868.029 662.265 869.085 660.388C870.171 658.481 871.637 657.029 873.485 656.032C875.333 655.005 877.401 654.492 879.689 654.492C881.977 654.492 884.045 655.005 885.893 656.032C887.741 657.029 889.193 658.467 890.249 660.344C891.335 662.221 891.877 664.407 891.877 666.9C891.877 669.393 891.32 671.593 890.205 673.5C889.12 675.377 887.639 676.829 885.761 677.856C883.884 678.883 881.801 679.396 879.513 679.396ZM879.513 675.876C880.951 675.876 882.3 675.539 883.561 674.864C884.823 674.189 885.835 673.177 886.597 671.828C887.389 670.479 887.785 668.836 887.785 666.9C887.785 664.964 887.404 663.321 886.641 661.972C885.879 660.623 884.881 659.625 883.649 658.98C882.417 658.305 881.083 657.968 879.645 657.968C878.179 657.968 876.829 658.305 875.597 658.98C874.395 659.625 873.427 660.623 872.693 661.972C871.96 663.321 871.593 664.964 871.593 666.9C871.593 668.865 871.945 670.523 872.649 671.872C873.383 673.221 874.351 674.233 875.553 674.908C876.756 675.553 878.076 675.876 879.513 675.876ZM908.89 654.448C911.823 654.448 914.199 655.343 916.018 657.132C917.837 658.892 918.746 661.444 918.746 664.788V679H914.786V665.36C914.786 662.955 914.185 661.121 912.982 659.86C911.779 658.569 910.137 657.924 908.054 657.924C905.942 657.924 904.255 658.584 902.994 659.904C901.762 661.224 901.146 663.145 901.146 665.668V679H897.142V654.888H901.146V658.32C901.938 657.088 903.009 656.135 904.358 655.46C905.737 654.785 907.247 654.448 908.89 654.448ZM946.741 679.308C944.717 679.308 942.898 678.956 941.285 678.252C939.701 677.519 938.454 676.521 937.545 675.26C936.636 673.969 936.166 672.488 936.137 670.816H940.405C940.552 672.253 941.138 673.471 942.165 674.468C943.221 675.436 944.746 675.92 946.741 675.92C948.648 675.92 950.144 675.451 951.229 674.512C952.344 673.544 952.901 672.312 952.901 670.816C952.901 669.643 952.578 668.689 951.933 667.956C951.288 667.223 950.481 666.665 949.513 666.284C948.545 665.903 947.24 665.492 945.597 665.052C943.573 664.524 941.945 663.996 940.713 663.468C939.51 662.94 938.469 662.119 937.589 661.004C936.738 659.86 936.313 658.335 936.313 656.428C936.313 654.756 936.738 653.275 937.589 651.984C938.44 650.693 939.628 649.696 941.153 648.992C942.708 648.288 944.482 647.936 946.477 647.936C949.352 647.936 951.698 648.655 953.517 650.092C955.365 651.529 956.406 653.436 956.641 655.812H952.241C952.094 654.639 951.478 653.612 950.393 652.732C949.308 651.823 947.87 651.368 946.081 651.368C944.409 651.368 943.045 651.808 941.989 652.688C940.933 653.539 940.405 654.741 940.405 656.296C940.405 657.411 940.713 658.32 941.329 659.024C941.974 659.728 942.752 660.271 943.661 660.652C944.6 661.004 945.905 661.415 947.577 661.884C949.601 662.441 951.229 662.999 952.461 663.556C953.693 664.084 954.749 664.92 955.629 666.064C956.509 667.179 956.949 668.704 956.949 670.64C956.949 672.136 956.553 673.544 955.761 674.864C954.969 676.184 953.796 677.255 952.241 678.076C950.686 678.897 948.853 679.308 946.741 679.308ZM973.357 679.396C971.098 679.396 969.045 678.883 967.197 677.856C965.378 676.829 963.941 675.377 962.885 673.5C961.858 671.593 961.345 669.393 961.345 666.9C961.345 664.436 961.873 662.265 962.929 660.388C964.014 658.481 965.481 657.029 967.329 656.032C969.177 655.005 971.245 654.492 973.533 654.492C975.821 654.492 977.889 655.005 979.737 656.032C981.585 657.029 983.037 658.467 984.093 660.344C985.178 662.221 985.721 664.407 985.721 666.9C985.721 669.393 985.164 671.593 984.049 673.5C982.964 675.377 981.482 676.829 979.605 677.856C977.728 678.883 975.645 679.396 973.357 679.396ZM973.357 675.876C974.794 675.876 976.144 675.539 977.405 674.864C978.666 674.189 979.678 673.177 980.441 671.828C981.233 670.479 981.629 668.836 981.629 666.9C981.629 664.964 981.248 663.321 980.485 661.972C979.722 660.623 978.725 659.625 977.493 658.98C976.261 658.305 974.926 657.968 973.489 657.968C972.022 657.968 970.673 658.305 969.441 658.98C968.238 659.625 967.27 660.623 966.537 661.972C965.804 663.321 965.437 664.964 965.437 666.9C965.437 668.865 965.789 670.523 966.493 671.872C967.226 673.221 968.194 674.233 969.397 674.908C970.6 675.553 971.92 675.876 973.357 675.876ZM994.99 658.804C995.694 657.425 996.691 656.355 997.982 655.592C999.302 654.829 1000.9 654.448 1002.78 654.448V658.584H1001.72C997.234 658.584 994.99 661.019 994.99 665.888V679H990.986V654.888H994.99V658.804ZM1011.4 659.376C1012.23 657.939 1013.43 656.765 1015.01 655.856C1016.6 654.947 1018.4 654.492 1020.42 654.492C1022.59 654.492 1024.55 655.005 1026.28 656.032C1028.01 657.059 1029.37 658.511 1030.37 660.388C1031.37 662.236 1031.86 664.392 1031.86 666.856C1031.86 669.291 1031.37 671.461 1030.37 673.368C1029.37 675.275 1027.99 676.756 1026.23 677.812C1024.5 678.868 1022.57 679.396 1020.42 679.396C1018.34 679.396 1016.51 678.941 1014.92 678.032C1013.37 677.123 1012.2 675.964 1011.4 674.556V679H1007.4V646.44H1011.4V659.376ZM1027.77 666.856C1027.77 665.037 1027.41 663.453 1026.67 662.104C1025.94 660.755 1024.94 659.728 1023.68 659.024C1022.45 658.32 1021.08 657.968 1019.59 657.968C1018.12 657.968 1016.76 658.335 1015.5 659.068C1014.26 659.772 1013.27 660.813 1012.5 662.192C1011.77 663.541 1011.4 665.111 1011.4 666.9C1011.4 668.719 1011.77 670.317 1012.5 671.696C1013.27 673.045 1014.26 674.087 1015.5 674.82C1016.76 675.524 1018.12 675.876 1019.59 675.876C1021.08 675.876 1022.45 675.524 1023.68 674.82C1024.94 674.087 1025.94 673.045 1026.67 671.696C1027.41 670.317 1027.77 668.704 1027.77 666.856ZM1059.13 666.02C1059.13 666.783 1059.09 667.589 1059 668.44H1039.73C1039.88 670.816 1040.68 672.679 1042.15 674.028C1043.65 675.348 1045.45 676.008 1047.56 676.008C1049.29 676.008 1050.73 675.612 1051.87 674.82C1053.05 673.999 1053.87 672.913 1054.34 671.564H1058.65C1058 673.881 1056.71 675.773 1054.78 677.24C1052.84 678.677 1050.44 679.396 1047.56 679.396C1045.27 679.396 1043.22 678.883 1041.4 677.856C1039.61 676.829 1038.2 675.377 1037.18 673.5C1036.15 671.593 1035.64 669.393 1035.64 666.9C1035.64 664.407 1036.14 662.221 1037.13 660.344C1038.13 658.467 1039.52 657.029 1041.31 656.032C1043.13 655.005 1045.22 654.492 1047.56 654.492C1049.85 654.492 1051.87 654.991 1053.63 655.988C1055.39 656.985 1056.74 658.364 1057.68 660.124C1058.65 661.855 1059.13 663.82 1059.13 666.02ZM1055 665.184C1055 663.659 1054.66 662.353 1053.99 661.268C1053.31 660.153 1052.39 659.317 1051.21 658.76C1050.07 658.173 1048.79 657.88 1047.39 657.88C1045.36 657.88 1043.63 658.525 1042.19 659.816C1040.79 661.107 1039.98 662.896 1039.77 665.184H1055ZM1069.3 658.188V672.4C1069.3 673.573 1069.55 674.409 1070.05 674.908C1070.55 675.377 1071.42 675.612 1072.65 675.612H1075.6V679H1071.99C1069.76 679 1068.09 678.487 1066.97 677.46C1065.86 676.433 1065.3 674.747 1065.3 672.4V658.188H1062.18V654.888H1065.3V648.816H1069.3V654.888H1075.6V658.188H1069.3Z" fill="black" fill-opacity="0.76"/>
<path d="M790.818 706.382L790.041 710.015H792.813V712.115H789.6L788.76 716H786.471L787.311 712.115H783.195L782.355 716H780.066L780.906 712.115H777.651V710.015H781.347L782.124 706.382H778.89V704.282H782.565L783.384 700.46H785.673L784.854 704.282H788.97L789.789 700.46H792.078L791.259 704.282H794.052V706.382H790.818ZM788.529 706.382H784.413L783.636 710.015H787.752L788.529 706.382ZM805.477 701.405V703.358H799.282V707.663H804.112V709.616H799.282V716H796.888V701.405H805.477ZM808.704 712.745C810.048 711.583 811.105 710.631 811.875 709.889C812.659 709.133 813.31 708.349 813.828 707.537C814.346 706.725 814.605 705.913 814.605 705.101C814.605 704.261 814.402 703.603 813.996 703.127C813.604 702.651 812.981 702.413 812.127 702.413C811.301 702.413 810.657 702.679 810.195 703.211C809.747 703.729 809.509 704.429 809.481 705.311H807.171C807.213 703.715 807.689 702.497 808.599 701.657C809.523 700.803 810.692 700.376 812.106 700.376C813.632 700.376 814.822 700.796 815.676 701.636C816.544 702.476 816.978 703.596 816.978 704.996C816.978 706.004 816.719 706.977 816.201 707.915C815.697 708.839 815.088 709.672 814.374 710.414C813.674 711.142 812.778 711.989 811.686 712.955L810.741 713.795H817.398V715.79H807.192V714.047L808.704 712.745ZM822.21 703.337V707.621H827.25V709.574H822.21V714.047H827.88V716H819.816V701.384H827.88V703.337H822.21ZM839.418 701.405V703.358H833.223V707.663H838.053V709.616H833.223V716H830.829V701.405H839.418ZM846.404 701.405C847.958 701.405 849.316 701.706 850.478 702.308C851.654 702.896 852.557 703.75 853.187 704.87C853.831 705.976 854.153 707.271 854.153 708.755C854.153 710.239 853.831 711.527 853.187 712.619C852.557 713.711 851.654 714.551 850.478 715.139C849.316 715.713 847.958 716 846.404 716H841.637V701.405H846.404ZM846.404 714.047C848.112 714.047 849.421 713.585 850.331 712.661C851.241 711.737 851.696 710.435 851.696 708.755C851.696 707.061 851.241 705.738 850.331 704.786C849.421 703.834 848.112 703.358 846.404 703.358H844.031V714.047H846.404ZM857.533 712.745C858.877 711.583 859.934 710.631 860.704 709.889C861.488 709.133 862.139 708.349 862.657 707.537C863.175 706.725 863.434 705.913 863.434 705.101C863.434 704.261 863.231 703.603 862.825 703.127C862.433 702.651 861.81 702.413 860.956 702.413C860.13 702.413 859.486 702.679 859.024 703.211C858.576 703.729 858.338 704.429 858.31 705.311H856C856.042 703.715 856.518 702.497 857.428 701.657C858.352 700.803 859.521 700.376 860.935 700.376C862.461 700.376 863.651 700.796 864.505 701.636C865.373 702.476 865.807 703.596 865.807 704.996C865.807 706.004 865.548 706.977 865.03 707.915C864.526 708.839 863.917 709.672 863.203 710.414C862.503 711.142 861.607 711.989 860.515 712.955L859.57 713.795H866.227V715.79H856.021V714.047L857.533 712.745Z" fill="black" fill-opacity="0.76"/>
<rect x="1150" width="364" height="764" rx="40" fill="#001309"/>
<path d="M1200.89 657.308C1200.89 659.86 1200.01 661.987 1198.25 663.688C1196.52 665.36 1193.87 666.196 1190.29 666.196H1184.39V679H1180.39V648.332H1190.29C1193.75 648.332 1196.37 649.168 1198.16 650.84C1199.98 652.512 1200.89 654.668 1200.89 657.308ZM1190.29 662.896C1192.52 662.896 1194.16 662.412 1195.22 661.444C1196.27 660.476 1196.8 659.097 1196.8 657.308C1196.8 653.524 1194.63 651.632 1190.29 651.632H1184.39V662.896H1190.29ZM1227.87 666.02C1227.87 666.783 1227.82 667.589 1227.74 668.44H1208.46C1208.61 670.816 1209.42 672.679 1210.88 674.028C1212.38 675.348 1214.18 676.008 1216.3 676.008C1218.03 676.008 1219.46 675.612 1220.61 674.82C1221.78 673.999 1222.6 672.913 1223.07 671.564H1227.38C1226.74 673.881 1225.45 675.773 1223.51 677.24C1221.58 678.677 1219.17 679.396 1216.3 679.396C1214.01 679.396 1211.96 678.883 1210.14 677.856C1208.35 676.829 1206.94 675.377 1205.91 673.5C1204.89 671.593 1204.37 669.393 1204.37 666.9C1204.37 664.407 1204.87 662.221 1205.87 660.344C1206.87 658.467 1208.26 657.029 1210.05 656.032C1211.87 655.005 1213.95 654.492 1216.3 654.492C1218.58 654.492 1220.61 654.991 1222.37 655.988C1224.13 656.985 1225.48 658.364 1226.42 660.124C1227.38 661.855 1227.87 663.82 1227.87 666.02ZM1223.73 665.184C1223.73 663.659 1223.4 662.353 1222.72 661.268C1222.05 660.153 1221.12 659.317 1219.95 658.76C1218.8 658.173 1217.53 657.88 1216.12 657.88C1214.1 657.88 1212.37 658.525 1210.93 659.816C1209.52 661.107 1208.71 662.896 1208.51 665.184H1223.73ZM1237.16 659.332C1237.95 657.953 1239.12 656.809 1240.68 655.9C1242.26 654.961 1244.09 654.492 1246.18 654.492C1248.32 654.492 1250.25 655.005 1251.99 656.032C1253.75 657.059 1255.12 658.511 1256.12 660.388C1257.12 662.236 1257.62 664.392 1257.62 666.856C1257.62 669.291 1257.12 671.461 1256.12 673.368C1255.12 675.275 1253.75 676.756 1251.99 677.812C1250.25 678.868 1248.32 679.396 1246.18 679.396C1244.12 679.396 1242.31 678.941 1240.72 678.032C1239.17 677.093 1237.98 675.935 1237.16 674.556V690.44H1233.15V654.888H1237.16V659.332ZM1253.53 666.856C1253.53 665.037 1253.16 663.453 1252.43 662.104C1251.69 660.755 1250.69 659.728 1249.43 659.024C1248.2 658.32 1246.84 657.968 1245.34 657.968C1243.87 657.968 1242.51 658.335 1241.25 659.068C1240.02 659.772 1239.02 660.813 1238.26 662.192C1237.52 663.541 1237.16 665.111 1237.16 666.9C1237.16 668.719 1237.52 670.317 1238.26 671.696C1239.02 673.045 1240.02 674.087 1241.25 674.82C1242.51 675.524 1243.87 675.876 1245.34 675.876C1246.84 675.876 1248.2 675.524 1249.43 674.82C1250.69 674.087 1251.69 673.045 1252.43 671.696C1253.16 670.317 1253.53 668.704 1253.53 666.856ZM1266.89 659.332C1267.68 657.953 1268.86 656.809 1270.41 655.9C1272 654.961 1273.83 654.492 1275.91 654.492C1278.05 654.492 1279.99 655.005 1281.72 656.032C1283.48 657.059 1284.86 658.511 1285.86 660.388C1286.85 662.236 1287.35 664.392 1287.35 666.856C1287.35 669.291 1286.85 671.461 1285.86 673.368C1284.86 675.275 1283.48 676.756 1281.72 677.812C1279.99 678.868 1278.05 679.396 1275.91 679.396C1273.86 679.396 1272.04 678.941 1270.46 678.032C1268.9 677.093 1267.71 675.935 1266.89 674.556V690.44H1262.89V654.888H1266.89V659.332ZM1283.26 666.856C1283.26 665.037 1282.89 663.453 1282.16 662.104C1281.43 660.755 1280.43 659.728 1279.17 659.024C1277.94 658.32 1276.57 657.968 1275.08 657.968C1273.61 657.968 1272.25 658.335 1270.98 659.068C1269.75 659.772 1268.75 660.813 1267.99 662.192C1267.26 663.541 1266.89 665.111 1266.89 666.9C1266.89 668.719 1267.26 670.317 1267.99 671.696C1268.75 673.045 1269.75 674.087 1270.98 674.82C1272.25 675.524 1273.61 675.876 1275.08 675.876C1276.57 675.876 1277.94 675.524 1279.17 674.82C1280.43 674.087 1281.43 673.045 1282.16 671.696C1282.89 670.317 1283.26 668.704 1283.26 666.856ZM1314.62 666.02C1314.62 666.783 1314.58 667.589 1314.49 668.44H1295.22C1295.37 670.816 1296.17 672.679 1297.64 674.028C1299.13 675.348 1300.94 676.008 1303.05 676.008C1304.78 676.008 1306.22 675.612 1307.36 674.82C1308.54 673.999 1309.36 672.913 1309.83 671.564H1314.14C1313.49 673.881 1312.2 675.773 1310.27 677.24C1308.33 678.677 1305.93 679.396 1303.05 679.396C1300.76 679.396 1298.71 678.883 1296.89 677.856C1295.1 676.829 1293.69 675.377 1292.67 673.5C1291.64 671.593 1291.13 669.393 1291.13 666.9C1291.13 664.407 1291.63 662.221 1292.62 660.344C1293.62 658.467 1295.01 657.029 1296.8 656.032C1298.62 655.005 1300.7 654.492 1303.05 654.492C1305.34 654.492 1307.36 654.991 1309.12 655.988C1310.88 656.985 1312.23 658.364 1313.17 660.124C1314.14 661.855 1314.62 663.82 1314.62 666.02ZM1310.49 665.184C1310.49 663.659 1310.15 662.353 1309.47 661.268C1308.8 660.153 1307.88 659.317 1306.7 658.76C1305.56 658.173 1304.28 657.88 1302.87 657.88C1300.85 657.88 1299.12 658.525 1297.68 659.816C1296.27 661.107 1295.47 662.896 1295.26 665.184H1310.49ZM1323.91 658.804C1324.62 657.425 1325.61 656.355 1326.9 655.592C1328.22 654.829 1329.82 654.448 1331.7 654.448V658.584H1330.64C1326.16 658.584 1323.91 661.019 1323.91 665.888V679H1319.91V654.888H1323.91V658.804Z" fill="#F2EFD2"/>
<path d="M1190.82 705.382L1190.04 709.015H1192.81V711.115H1189.6L1188.76 715H1186.47L1187.31 711.115H1183.2L1182.36 715H1180.07L1180.91 711.115H1177.65V709.015H1181.35L1182.12 705.382H1178.89V703.282H1182.57L1183.38 699.46H1185.67L1184.85 703.282H1188.97L1189.79 699.46H1192.08L1191.26 703.282H1194.05V705.382H1190.82ZM1188.53 705.382H1184.41L1183.64 709.015H1187.75L1188.53 705.382ZM1196.57 707.146C1196.57 704.724 1196.98 702.834 1197.79 701.476C1198.62 700.104 1200.03 699.418 1202.03 699.418C1204.04 699.418 1205.44 700.104 1206.25 701.476C1207.08 702.834 1207.49 704.724 1207.49 707.146C1207.49 709.596 1207.08 711.514 1206.25 712.9C1205.44 714.272 1204.04 714.958 1202.03 714.958C1200.03 714.958 1198.62 714.272 1197.79 712.9C1196.98 711.514 1196.57 709.596 1196.57 707.146ZM1205.14 707.146C1205.14 706.012 1205.06 705.053 1204.91 704.269C1204.77 703.485 1204.48 702.848 1204.03 702.358C1203.58 701.854 1202.92 701.602 1202.03 701.602C1201.15 701.602 1200.49 701.854 1200.04 702.358C1199.59 702.848 1199.29 703.485 1199.14 704.269C1199 705.053 1198.93 706.012 1198.93 707.146C1198.93 708.322 1199 709.309 1199.14 710.107C1199.28 710.905 1199.57 711.549 1200.02 712.039C1200.48 712.529 1201.15 712.774 1202.03 712.774C1202.92 712.774 1203.58 712.529 1204.03 712.039C1204.49 711.549 1204.79 710.905 1204.93 710.107C1205.07 709.309 1205.14 708.322 1205.14 707.146ZM1210.03 707.146C1210.03 704.724 1210.43 702.834 1211.24 701.476C1212.07 700.104 1213.48 699.418 1215.49 699.418C1217.49 699.418 1218.9 700.104 1219.71 701.476C1220.53 702.834 1220.95 704.724 1220.95 707.146C1220.95 709.596 1220.53 711.514 1219.71 712.9C1218.9 714.272 1217.49 714.958 1215.49 714.958C1213.48 714.958 1212.07 714.272 1211.24 712.9C1210.43 711.514 1210.03 709.596 1210.03 707.146ZM1218.59 707.146C1218.59 706.012 1218.52 705.053 1218.36 704.269C1218.22 703.485 1217.93 702.848 1217.48 702.358C1217.03 701.854 1216.37 701.602 1215.49 701.602C1214.6 701.602 1213.94 701.854 1213.49 702.358C1213.04 702.848 1212.74 703.485 1212.59 704.269C1212.45 705.053 1212.38 706.012 1212.38 707.146C1212.38 708.322 1212.45 709.309 1212.59 710.107C1212.73 710.905 1213.02 711.549 1213.47 712.039C1213.93 712.529 1214.6 712.774 1215.49 712.774C1216.37 712.774 1217.03 712.529 1217.48 712.039C1217.94 711.549 1218.24 710.905 1218.38 710.107C1218.52 709.309 1218.59 708.322 1218.59 707.146ZM1223.16 701.875V699.691H1227.53V715H1225.12V701.875H1223.16ZM1230.78 703.471C1230.86 702.169 1231.36 701.154 1232.27 700.426C1233.19 699.698 1234.37 699.334 1235.8 699.334C1236.78 699.334 1237.63 699.509 1238.34 699.859C1239.05 700.209 1239.59 700.685 1239.96 701.287C1240.32 701.889 1240.5 702.568 1240.5 703.324C1240.5 704.192 1240.27 704.934 1239.81 705.55C1239.35 706.166 1238.79 706.579 1238.15 706.789V706.873C1238.98 707.125 1239.62 707.587 1240.08 708.259C1240.54 708.917 1240.78 709.764 1240.78 710.8C1240.78 711.626 1240.59 712.361 1240.21 713.005C1239.83 713.649 1239.27 714.16 1238.53 714.538C1237.79 714.902 1236.9 715.084 1235.86 715.084C1234.35 715.084 1233.1 714.699 1232.12 713.929C1231.16 713.145 1230.64 712.025 1230.57 710.569H1232.88C1232.94 711.311 1233.22 711.92 1233.74 712.396C1234.26 712.858 1234.96 713.089 1235.84 713.089C1236.69 713.089 1237.35 712.858 1237.81 712.396C1238.28 711.92 1238.51 711.311 1238.51 710.569C1238.51 709.589 1238.19 708.896 1237.56 708.49C1236.95 708.07 1235.99 707.86 1234.71 707.86H1234.16V705.886H1234.73C1235.86 705.872 1236.72 705.683 1237.31 705.319C1237.91 704.955 1238.21 704.381 1238.21 703.597C1238.21 702.925 1238 702.393 1237.56 702.001C1237.13 701.595 1236.51 701.392 1235.71 701.392C1234.93 701.392 1234.32 701.595 1233.89 702.001C1233.45 702.393 1233.19 702.883 1233.11 703.471H1230.78ZM1243.29 707.146C1243.29 704.724 1243.7 702.834 1244.51 701.476C1245.33 700.104 1246.75 699.418 1248.75 699.418C1250.75 699.418 1252.16 700.104 1252.97 701.476C1253.8 702.834 1254.21 704.724 1254.21 707.146C1254.21 709.596 1253.8 711.514 1252.97 712.9C1252.16 714.272 1250.75 714.958 1248.75 714.958C1246.75 714.958 1245.33 714.272 1244.51 712.9C1243.7 711.514 1243.29 709.596 1243.29 707.146ZM1251.86 707.146C1251.86 706.012 1251.78 705.053 1251.63 704.269C1251.49 703.485 1251.19 702.848 1250.75 702.358C1250.3 701.854 1249.63 701.602 1248.75 701.602C1247.87 701.602 1247.2 701.854 1246.76 702.358C1246.31 702.848 1246.01 703.485 1245.85 704.269C1245.71 705.053 1245.64 706.012 1245.64 707.146C1245.64 708.322 1245.71 709.309 1245.85 710.107C1245.99 710.905 1246.29 711.549 1246.73 712.039C1247.2 712.529 1247.87 712.774 1248.75 712.774C1249.63 712.774 1250.3 712.529 1250.75 712.039C1251.21 711.549 1251.51 710.905 1251.65 710.107C1251.79 709.309 1251.86 708.322 1251.86 707.146ZM1259.73 710.842C1259.87 711.542 1260.17 712.074 1260.63 712.438C1261.09 712.802 1261.71 712.984 1262.5 712.984C1263.49 712.984 1264.22 712.592 1264.68 711.808C1265.14 711.024 1265.37 709.687 1265.37 707.797C1265.04 708.273 1264.56 708.644 1263.95 708.91C1263.34 709.162 1262.69 709.288 1261.97 709.288C1261.06 709.288 1260.24 709.106 1259.49 708.742C1258.75 708.364 1258.16 707.811 1257.73 707.083C1257.31 706.341 1257.1 705.445 1257.1 704.395C1257.1 702.855 1257.55 701.63 1258.44 700.72C1259.35 699.796 1260.6 699.334 1262.18 699.334C1264.09 699.334 1265.44 699.971 1266.24 701.245C1267.05 702.505 1267.45 704.444 1267.45 707.062C1267.45 708.868 1267.3 710.345 1266.99 711.493C1266.7 712.641 1266.18 713.509 1265.44 714.097C1264.7 714.685 1263.67 714.979 1262.35 714.979C1260.85 714.979 1259.7 714.587 1258.89 713.803C1258.07 713.019 1257.62 712.032 1257.52 710.842H1259.73ZM1262.39 707.272C1263.23 707.272 1263.89 707.013 1264.37 706.495C1264.86 705.963 1265.1 705.263 1265.1 704.395C1265.1 703.429 1264.84 702.68 1264.32 702.148C1263.82 701.602 1263.13 701.329 1262.25 701.329C1261.36 701.329 1260.66 701.609 1260.15 702.169C1259.64 702.715 1259.39 703.436 1259.39 704.332C1259.39 705.186 1259.63 705.893 1260.12 706.453C1260.63 706.999 1261.38 707.272 1262.39 707.272Z" fill="#F2EFD2" fill-opacity="0.9"/>
</svg>
