<svg width="1514" height="764" viewBox="0 0 1514 764" fill="none" xmlns="http://www.w3.org/2000/svg">
<rect x="749" y="1" width="362" height="762" rx="39" stroke="#001309" stroke-width="2"/>
<rect width="710" height="364" rx="40" fill="#317250"/>
<path d="M49.54 264V263.56H50.464C51.168 263.56 51.7547 263.457 52.224 263.252C52.7227 263.047 53.0893 262.724 53.324 262.284C53.588 261.815 53.72 261.213 53.72 260.48V235.972C53.72 235.268 53.588 234.711 53.324 234.3C53.0893 233.86 52.7227 233.537 52.224 233.332C51.7253 233.127 51.1387 233.024 50.464 233.024H49.54V232.584H61.64C65.512 232.584 68.416 233.229 70.352 234.52C72.3173 235.781 73.3 237.659 73.3 240.152C73.3 241.619 72.9627 242.865 72.288 243.892C71.6427 244.919 70.6747 245.725 69.384 246.312C68.0933 246.869 66.48 247.221 64.544 247.368V247.456C66.8907 247.515 68.7973 247.896 70.264 248.6C71.76 249.275 72.86 250.199 73.564 251.372C74.268 252.545 74.62 253.939 74.62 255.552C74.62 258.368 73.652 260.48 71.716 261.888C69.78 263.296 66.8613 264 62.96 264H49.54ZM62.74 263.56C65.0573 263.56 66.7 262.944 67.668 261.712C68.6653 260.48 69.164 258.441 69.164 255.596C69.164 253.689 68.944 252.179 68.504 251.064C68.0933 249.92 67.4187 249.084 66.48 248.556C65.5707 248.028 64.3533 247.764 62.828 247.764H58.824V263.56H62.74ZM61.508 247.324C63.0333 247.324 64.2507 247.089 65.16 246.62C66.0987 246.151 66.7733 245.417 67.184 244.42C67.624 243.393 67.844 242.044 67.844 240.372C67.844 237.703 67.3453 235.811 66.348 234.696C65.38 233.581 63.7373 233.024 61.42 233.024H58.824V247.324H61.508ZM86.3319 264.44C84.8652 264.44 83.5892 264.176 82.5039 263.648C81.4186 263.091 80.5826 262.328 79.9959 261.36C79.4386 260.363 79.1599 259.189 79.1599 257.84C79.1599 255.581 79.9812 253.909 81.6239 252.824C83.2666 251.739 85.7746 251.137 89.1479 251.02L92.7559 250.888V246.972C92.7559 245.417 92.6679 244.156 92.4919 243.188C92.3159 242.22 91.9639 241.516 91.4359 241.076C90.9079 240.607 90.1159 240.372 89.0599 240.372C88.0332 240.372 87.2412 240.607 86.6839 241.076C86.1559 241.516 85.7892 242.22 85.5839 243.188C85.4079 244.156 85.3199 245.447 85.3199 247.06C83.9119 247.06 82.8412 246.855 82.1079 246.444C81.3746 246.004 81.0079 245.3 81.0079 244.332C81.0079 243.276 81.3746 242.425 82.1079 241.78C82.8706 241.135 83.8679 240.665 85.0999 240.372C86.3612 240.079 87.7399 239.932 89.2359 239.932C92.0226 239.932 94.1052 240.504 95.4839 241.648C96.8919 242.792 97.5959 244.743 97.5959 247.5V260.656C97.5959 261.389 97.6839 261.976 97.8599 262.416C98.0359 262.827 98.3292 263.12 98.7399 263.296C99.1506 263.472 99.6786 263.56 100.324 263.56H100.456V264H93.0639V259.424H92.9759C92.6532 260.627 92.1692 261.595 91.5239 262.328C90.8786 263.061 90.1159 263.604 89.2359 263.956C88.3559 264.279 87.3879 264.44 86.3319 264.44ZM87.6079 263.648C88.6346 263.648 89.5292 263.355 90.2919 262.768C91.0839 262.181 91.6852 261.419 92.0959 260.48C92.5359 259.512 92.7559 258.471 92.7559 257.356V251.372L90.1599 251.46C88.6346 251.519 87.4319 251.783 86.5519 252.252C85.6719 252.721 85.0412 253.425 84.6599 254.364C84.3079 255.303 84.1319 256.564 84.1319 258.148C84.1319 259.38 84.2492 260.407 84.4839 261.228C84.7479 262.049 85.1292 262.665 85.6279 263.076C86.1559 263.457 86.8159 263.648 87.6079 263.648ZM111.731 264.44C110.147 264.44 108.768 264.249 107.595 263.868C106.451 263.487 105.571 262.944 104.955 262.24C104.339 261.507 104.031 260.641 104.031 259.644C104.031 258.793 104.207 258.148 104.559 257.708C104.94 257.268 105.365 256.96 105.835 256.784C106.333 256.608 106.773 256.52 107.155 256.52C107.155 258.221 107.301 259.629 107.595 260.744C107.917 261.829 108.431 262.651 109.135 263.208C109.839 263.736 110.777 264 111.951 264C113.447 264 114.635 263.619 115.515 262.856C116.424 262.064 116.879 260.891 116.879 259.336C116.879 258.309 116.688 257.503 116.307 256.916C115.955 256.329 115.368 255.816 114.547 255.376C113.725 254.907 112.611 254.379 111.203 253.792C109.619 253.117 108.328 252.457 107.331 251.812C106.333 251.137 105.585 250.375 105.087 249.524C104.617 248.673 104.383 247.632 104.383 246.4C104.383 244.317 105.116 242.733 106.583 241.648C108.079 240.533 110.132 239.976 112.743 239.976C114.268 239.976 115.544 240.167 116.571 240.548C117.627 240.929 118.419 241.428 118.947 242.044C119.475 242.66 119.739 243.349 119.739 244.112C119.739 244.904 119.445 245.549 118.859 246.048C118.272 246.547 117.392 246.796 116.219 246.796C116.219 244.479 115.896 242.836 115.251 241.868C114.635 240.9 113.681 240.416 112.391 240.416C111.511 240.416 110.748 240.577 110.103 240.9C109.457 241.193 108.944 241.648 108.563 242.264C108.211 242.851 108.035 243.628 108.035 244.596C108.035 245.593 108.24 246.4 108.651 247.016C109.091 247.603 109.751 248.116 110.631 248.556C111.511 248.996 112.64 249.495 114.019 250.052C115.603 250.668 116.879 251.313 117.847 251.988C118.815 252.663 119.519 253.425 119.959 254.276C120.399 255.127 120.619 256.153 120.619 257.356C120.619 259.644 119.827 261.404 118.243 262.636C116.688 263.839 114.517 264.44 111.731 264.44ZM123.432 264V263.56H124.004C124.766 263.56 125.397 263.457 125.896 263.252C126.424 263.047 126.82 262.709 127.084 262.24C127.348 261.771 127.48 261.125 127.48 260.304V244.068C127.48 243.276 127.348 242.645 127.084 242.176C126.82 241.707 126.424 241.369 125.896 241.164C125.397 240.959 124.766 240.856 124.004 240.856H123.784V240.416H132.32V260.172C132.32 261.023 132.452 261.697 132.716 262.196C132.98 262.695 133.376 263.047 133.904 263.252C134.432 263.457 135.062 263.56 135.796 263.56H136.368V264H123.432ZM129.68 236.28C129.034 236.28 128.492 236.075 128.052 235.664C127.641 235.253 127.436 234.564 127.436 233.596C127.436 232.599 127.656 231.909 128.096 231.528C128.536 231.147 129.064 230.956 129.68 230.956C130.296 230.956 130.824 231.161 131.264 231.572C131.704 231.953 131.924 232.628 131.924 233.596C131.924 234.564 131.704 235.253 131.264 235.664C130.824 236.075 130.296 236.28 129.68 236.28ZM137.604 264V263.56H138.176C138.939 263.56 139.57 263.457 140.068 263.252C140.596 263.047 140.992 262.709 141.256 262.24C141.52 261.771 141.652 261.125 141.652 260.304V234.212C141.652 233.42 141.52 232.789 141.256 232.32C140.992 231.851 140.596 231.513 140.068 231.308C139.54 231.103 138.91 231 138.176 231H137.604V230.56H146.492V260.172C146.492 261.023 146.624 261.697 146.888 262.196C147.152 262.695 147.534 263.047 148.032 263.252C148.56 263.457 149.206 263.56 149.968 263.56H150.496V264H137.604Z" fill="#F2EFD2"/>
<path d="M52.2 312.989L53.376 308.59H49.26L49.7325 306.805H53.859L54.6675 303.739H50.5515L51.0345 301.965H55.1505L56.2425 297.88H58.0905L56.988 301.965H60.1905L61.2825 297.88H63.1305L62.028 301.965H66.144L65.6715 303.739H61.5555L60.726 306.805H64.842L64.3695 308.59H60.2535L59.0775 312.989H57.24L58.4055 308.59H55.2135L54.0375 312.989H52.2ZM55.6965 306.805H58.8885L59.7075 303.739H56.5155L55.6965 306.805ZM73.0179 313.294C72.2689 313.294 71.5724 313.158 70.9284 312.884C70.2844 312.604 69.7279 312.212 69.2589 311.708C68.7969 311.197 68.4574 310.592 68.2404 309.892L70.0359 309.377C70.2669 310.077 70.6519 310.609 71.1909 310.973C71.7299 311.337 72.3354 311.516 73.0074 311.509C73.6234 311.495 74.1554 311.355 74.6034 311.089C75.0584 310.816 75.4084 310.445 75.6534 309.976C75.9054 309.507 76.0314 308.964 76.0314 308.348C76.0314 307.41 75.7514 306.651 75.1914 306.07C74.6314 305.482 73.8964 305.188 72.9864 305.188C72.7344 305.188 72.4684 305.223 72.1884 305.293C71.9154 305.363 71.6599 305.461 71.4219 305.587L70.5189 304.106L76.1259 299.035L76.3674 299.665H68.8389V297.88H77.7534V299.675L72.9759 304.253L72.9549 303.592C73.9559 303.522 74.8309 303.686 75.5799 304.085C76.3289 304.484 76.9099 305.055 77.3229 305.797C77.7429 306.539 77.9529 307.389 77.9529 308.348C77.9529 309.314 77.7359 310.168 77.3019 310.91C76.8679 311.652 76.2799 312.237 75.5379 312.664C74.7959 313.084 73.9559 313.294 73.0179 313.294ZM83.3184 313V299.948L80.4729 301.671V299.581L83.3184 297.88H85.2189V313H83.3184ZM90.0121 313L95.4511 299.675H88.5841V297.88H97.4566V299.675L92.0281 313H90.0121ZM99.5607 312.989L99.5712 311.309L106.281 305.272C106.841 304.768 107.215 304.292 107.404 303.844C107.6 303.389 107.698 302.923 107.698 302.448C107.698 301.866 107.565 301.341 107.299 300.872C107.033 300.403 106.669 300.032 106.207 299.759C105.752 299.486 105.234 299.35 104.653 299.35C104.051 299.35 103.516 299.493 103.047 299.78C102.578 300.06 102.207 300.435 101.934 300.904C101.668 301.373 101.538 301.884 101.545 302.437H99.6342C99.6342 301.485 99.8547 300.645 100.296 299.917C100.737 299.182 101.335 298.608 102.091 298.195C102.854 297.775 103.719 297.565 104.685 297.565C105.623 297.565 106.463 297.782 107.205 298.216C107.947 298.643 108.531 299.227 108.958 299.969C109.392 300.704 109.609 301.537 109.609 302.468C109.609 303.126 109.525 303.697 109.357 304.18C109.196 304.663 108.944 305.111 108.601 305.524C108.258 305.93 107.828 306.364 107.31 306.826L101.734 311.834L101.493 311.204H109.609V312.989H99.5607ZM116.594 313.315C115.817 313.315 115.093 313.154 114.421 312.832C113.756 312.51 113.185 312.069 112.709 311.509C112.24 310.942 111.904 310.291 111.701 309.556L113.497 309.073C113.623 309.57 113.847 310 114.169 310.364C114.491 310.721 114.865 311.001 115.292 311.204C115.726 311.4 116.178 311.498 116.647 311.498C117.263 311.498 117.816 311.351 118.306 311.057C118.803 310.756 119.195 310.361 119.482 309.871C119.769 309.374 119.912 308.831 119.912 308.243C119.912 307.634 119.762 307.085 119.461 306.595C119.167 306.098 118.771 305.706 118.274 305.419C117.777 305.132 117.235 304.988 116.647 304.988C115.982 304.988 115.411 305.128 114.935 305.408C114.466 305.681 114.095 306.017 113.822 306.416L112.163 305.786L112.625 297.88H120.742V299.654H113.528L114.358 298.877L113.969 305.209L113.56 304.673C113.98 304.225 114.48 303.879 115.061 303.634C115.649 303.389 116.248 303.266 116.857 303.266C117.795 303.266 118.635 303.487 119.377 303.928C120.119 304.362 120.707 304.957 121.141 305.713C121.575 306.462 121.792 307.305 121.792 308.243C121.792 309.174 121.554 310.025 121.078 310.795C120.602 311.558 119.968 312.17 119.177 312.632C118.393 313.088 117.532 313.315 116.594 313.315ZM129.406 313.315C128.426 313.315 127.551 313.095 126.781 312.654C126.018 312.205 125.413 311.6 124.965 310.837C124.524 310.067 124.303 309.192 124.303 308.212V302.668C124.303 301.688 124.524 300.813 124.965 300.043C125.413 299.273 126.018 298.667 126.781 298.226C127.551 297.785 128.426 297.565 129.406 297.565C130.386 297.565 131.261 297.785 132.031 298.226C132.801 298.667 133.407 299.273 133.848 300.043C134.289 300.813 134.509 301.688 134.509 302.668V308.212C134.509 309.192 134.289 310.067 133.848 310.837C133.407 311.6 132.801 312.205 132.031 312.654C131.261 313.095 130.386 313.315 129.406 313.315ZM129.406 311.519C130.001 311.519 130.54 311.376 131.023 311.089C131.506 310.802 131.891 310.417 132.178 309.934C132.465 309.444 132.609 308.905 132.609 308.317V302.552C132.609 301.957 132.465 301.418 132.178 300.935C131.891 300.452 131.506 300.067 131.023 299.78C130.54 299.493 130.001 299.35 129.406 299.35C128.818 299.35 128.279 299.493 127.789 299.78C127.306 300.067 126.921 300.452 126.634 300.935C126.347 301.418 126.204 301.957 126.204 302.552V308.317C126.204 308.905 126.347 309.444 126.634 309.934C126.921 310.417 127.306 310.802 127.789 311.089C128.279 311.376 128.818 311.519 129.406 311.519Z" fill="#F2EFD2" fill-opacity="0.8"/>
<rect y="400" width="710" height="364" rx="40" fill="#E35252"/>
<path d="M54.952 664V663.56H55.876C56.58 663.56 57.1667 663.457 57.636 663.252C58.1347 663.047 58.5013 662.724 58.736 662.284C59 661.815 59.132 661.213 59.132 660.48V633.024H55.744C54.248 633.024 53.0307 633.215 52.092 633.596C51.1827 633.948 50.508 634.564 50.068 635.444C49.6573 636.295 49.408 637.453 49.32 638.92L49.188 640.504H48.748L49.056 632.584H74.444L74.708 640.504H74.268L74.18 638.92C74.092 637.453 73.828 636.295 73.388 635.444C72.948 634.564 72.2733 633.948 71.364 633.596C70.4547 633.215 69.2373 633.024 67.712 633.024H64.28V660.48C64.28 661.213 64.3973 661.815 64.632 662.284C64.8667 662.724 65.2333 663.047 65.732 663.252C66.2307 663.457 66.8173 663.56 67.492 663.56H68.416V664H54.952ZM86.973 664.44C83.717 664.44 81.1503 663.428 79.273 661.404C77.3957 659.38 76.457 656.3 76.457 652.164C76.457 648.028 77.3517 644.963 79.141 642.968C80.9303 640.944 83.585 639.932 87.105 639.932C90.361 639.932 92.9277 640.944 94.805 642.968C96.6823 644.963 97.621 648.028 97.621 652.164C97.621 656.3 96.7117 659.38 94.893 661.404C93.1037 663.428 90.4637 664.44 86.973 664.44ZM87.061 664C88.4103 664 89.4957 663.619 90.317 662.856C91.1383 662.064 91.725 660.803 92.077 659.072C92.4583 657.312 92.649 655.009 92.649 652.164C92.649 649.319 92.4583 647.031 92.077 645.3C91.725 643.569 91.1383 642.323 90.317 641.56C89.4957 640.768 88.3957 640.372 87.017 640.372C85.6677 640.372 84.5823 640.768 83.761 641.56C82.9397 642.323 82.3383 643.569 81.957 645.3C81.605 647.031 81.429 649.319 81.429 652.164C81.429 655.039 81.605 657.341 81.957 659.072C82.3383 660.803 82.9397 662.064 83.761 662.856C84.6117 663.619 85.7117 664 87.061 664ZM101.049 664V663.56H101.445C102.208 663.56 102.839 663.457 103.337 663.252C103.865 663.047 104.261 662.709 104.525 662.24C104.789 661.771 104.921 661.125 104.921 660.304V644.068C104.921 643.247 104.789 642.616 104.525 642.176C104.261 641.707 103.865 641.369 103.337 641.164C102.839 640.959 102.208 640.856 101.445 640.856H101.225V640.416H109.717V644.552H109.805C110.216 643.261 110.759 642.293 111.433 641.648C112.108 640.973 112.871 640.519 113.721 640.284C114.572 640.049 115.437 639.932 116.317 639.932C117.461 639.932 118.488 640.108 119.397 640.46C120.336 640.812 121.143 641.384 121.817 642.176C122.521 642.939 123.049 643.98 123.401 645.3H123.489C123.812 643.833 124.281 642.719 124.897 641.956C125.543 641.193 126.291 640.665 127.141 640.372C128.021 640.079 128.945 639.932 129.913 639.932C132.465 639.932 134.357 640.651 135.589 642.088C136.821 643.496 137.437 645.681 137.437 648.644V660.084C137.437 660.964 137.54 661.668 137.745 662.196C137.98 662.695 138.347 663.047 138.845 663.252C139.373 663.457 140.033 663.56 140.825 663.56H140.957V664H132.597V647.588C132.597 645.3 132.275 643.628 131.629 642.572C131.013 641.487 130.001 640.944 128.593 640.944C127.508 640.944 126.584 641.252 125.821 641.868C125.088 642.455 124.545 643.305 124.193 644.42C123.841 645.535 123.665 646.869 123.665 648.424V660.084C123.665 660.964 123.783 661.668 124.017 662.196C124.252 662.695 124.619 663.047 125.117 663.252C125.645 663.457 126.305 663.56 127.097 663.56H127.229V664H118.825V647.588C118.825 645.3 118.503 643.628 117.857 642.572C117.241 641.487 116.2 640.944 114.733 640.944C113.589 640.944 112.651 641.252 111.917 641.868C111.184 642.484 110.641 643.393 110.289 644.596C109.937 645.799 109.761 647.265 109.761 648.996V660.172C109.761 661.023 109.893 661.697 110.157 662.196C110.421 662.695 110.817 663.047 111.345 663.252C111.873 663.457 112.504 663.56 113.237 663.56H113.457V664H101.049ZM151.344 664.44C149.877 664.44 148.601 664.176 147.516 663.648C146.43 663.091 145.594 662.328 145.008 661.36C144.45 660.363 144.172 659.189 144.172 657.84C144.172 655.581 144.993 653.909 146.636 652.824C148.278 651.739 150.786 651.137 154.16 651.02L157.768 650.888V646.972C157.768 645.417 157.68 644.156 157.504 643.188C157.328 642.22 156.976 641.516 156.448 641.076C155.92 640.607 155.128 640.372 154.072 640.372C153.045 640.372 152.253 640.607 151.696 641.076C151.168 641.516 150.801 642.22 150.596 643.188C150.42 644.156 150.332 645.447 150.332 647.06C148.924 647.06 147.853 646.855 147.12 646.444C146.386 646.004 146.02 645.3 146.02 644.332C146.02 643.276 146.386 642.425 147.12 641.78C147.882 641.135 148.88 640.665 150.112 640.372C151.373 640.079 152.752 639.932 154.248 639.932C157.034 639.932 159.117 640.504 160.496 641.648C161.904 642.792 162.608 644.743 162.608 647.5V660.656C162.608 661.389 162.696 661.976 162.872 662.416C163.048 662.827 163.341 663.12 163.752 663.296C164.162 663.472 164.69 663.56 165.336 663.56H165.468V664H158.076V659.424H157.988C157.665 660.627 157.181 661.595 156.536 662.328C155.89 663.061 155.128 663.604 154.248 663.956C153.368 664.279 152.4 664.44 151.344 664.44ZM152.62 663.648C153.646 663.648 154.541 663.355 155.304 662.768C156.096 662.181 156.697 661.419 157.108 660.48C157.548 659.512 157.768 658.471 157.768 657.356V651.372L155.172 651.46C153.646 651.519 152.444 651.783 151.564 652.252C150.684 652.721 150.053 653.425 149.672 654.364C149.32 655.303 149.144 656.564 149.144 658.148C149.144 659.38 149.261 660.407 149.496 661.228C149.76 662.049 150.141 662.665 150.64 663.076C151.168 663.457 151.828 663.648 152.62 663.648ZM177.842 664.44C175.672 664.44 174.058 663.941 173.002 662.944C171.946 661.917 171.418 660.128 171.418 657.576V640.856H168.118V640.416C169.262 640.416 170.26 640.313 171.11 640.108C171.99 639.873 172.738 639.521 173.354 639.052C174 638.583 174.513 637.981 174.894 637.248C175.305 636.485 175.613 635.576 175.818 634.52H176.258V640.416H182.286V640.856H176.258V659.292C176.258 660.788 176.537 661.903 177.094 662.636C177.681 663.369 178.532 663.736 179.646 663.736C180.057 663.736 180.482 663.692 180.922 663.604C181.392 663.516 181.876 663.384 182.374 663.208V663.648C181.993 663.824 181.377 664 180.526 664.176C179.676 664.352 178.781 664.44 177.842 664.44ZM196.243 664.44C192.987 664.44 190.42 663.428 188.543 661.404C186.665 659.38 185.727 656.3 185.727 652.164C185.727 648.028 186.621 644.963 188.411 642.968C190.2 640.944 192.855 639.932 196.375 639.932C199.631 639.932 202.197 640.944 204.075 642.968C205.952 644.963 206.891 648.028 206.891 652.164C206.891 656.3 205.981 659.38 204.163 661.404C202.373 663.428 199.733 664.44 196.243 664.44ZM196.331 664C197.68 664 198.765 663.619 199.587 662.856C200.408 662.064 200.995 660.803 201.347 659.072C201.728 657.312 201.919 655.009 201.919 652.164C201.919 649.319 201.728 647.031 201.347 645.3C200.995 643.569 200.408 642.323 199.587 641.56C198.765 640.768 197.665 640.372 196.287 640.372C194.937 640.372 193.852 640.768 193.031 641.56C192.209 642.323 191.608 643.569 191.227 645.3C190.875 647.031 190.699 649.319 190.699 652.164C190.699 655.039 190.875 657.341 191.227 659.072C191.608 660.803 192.209 662.064 193.031 662.856C193.881 663.619 194.981 664 196.331 664Z" fill="#F2EFD2"/>
<path d="M52.2 712.989L53.376 708.59H49.26L49.7325 706.805H53.859L54.6675 703.739H50.5515L51.0345 701.965H55.1505L56.2425 697.88H58.0905L56.988 701.965H60.1905L61.2825 697.88H63.1305L62.028 701.965H66.144L65.6715 703.739H61.5555L60.726 706.805H64.842L64.3695 708.59H60.2535L59.0775 712.989H57.24L58.4055 708.59H55.2135L54.0375 712.989H52.2ZM55.6965 706.805H58.8885L59.7075 703.739H56.5155L55.6965 706.805ZM68.8704 713V697.88H78.4254V699.654H70.7394V704.39H77.1654V706.164H70.7394V711.225H78.4254V713H68.8704ZM85.097 713.294C84.348 713.294 83.6515 713.158 83.0075 712.884C82.3635 712.604 81.807 712.212 81.338 711.708C80.876 711.197 80.5365 710.592 80.3195 709.892L82.115 709.377C82.346 710.077 82.731 710.609 83.27 710.973C83.809 711.337 84.4145 711.516 85.0865 711.509C85.7025 711.495 86.2345 711.355 86.6825 711.089C87.1375 710.816 87.4875 710.445 87.7325 709.976C87.9845 709.507 88.1105 708.964 88.1105 708.348C88.1105 707.41 87.8305 706.651 87.2705 706.07C86.7105 705.482 85.9755 705.188 85.0655 705.188C84.8135 705.188 84.5475 705.223 84.2675 705.293C83.9945 705.363 83.739 705.461 83.501 705.587L82.598 704.106L88.205 699.035L88.4465 699.665H80.918V697.88H89.8325V699.675L85.055 704.253L85.034 703.592C86.035 703.522 86.91 703.686 87.659 704.085C88.408 704.484 88.989 705.055 89.402 705.797C89.822 706.539 90.032 707.389 90.032 708.348C90.032 709.314 89.815 710.168 89.381 710.91C88.947 711.652 88.359 712.237 87.617 712.664C86.875 713.084 86.035 713.294 85.097 713.294ZM97.235 713.315C96.458 713.315 95.7335 713.154 95.0615 712.832C94.3965 712.51 93.826 712.069 93.35 711.509C92.881 710.942 92.545 710.291 92.342 709.556L94.1375 709.073C94.2635 709.57 94.4875 710 94.8095 710.364C95.1315 710.721 95.506 711.001 95.933 711.204C96.367 711.4 96.8185 711.498 97.2875 711.498C97.9035 711.498 98.4565 711.351 98.9465 711.057C99.4435 710.756 99.8355 710.361 100.122 709.871C100.409 709.374 100.553 708.831 100.553 708.243C100.553 707.634 100.402 707.085 100.101 706.595C99.8075 706.098 99.412 705.706 98.915 705.419C98.418 705.132 97.8755 704.988 97.2875 704.988C96.6225 704.988 96.052 705.128 95.576 705.408C95.107 705.681 94.736 706.017 94.463 706.416L92.804 705.786L93.266 697.88H101.382V699.654H94.169L94.9985 698.877L94.61 705.209L94.2005 704.673C94.6205 704.225 95.121 703.879 95.702 703.634C96.29 703.389 96.8885 703.266 97.4975 703.266C98.4355 703.266 99.2755 703.487 100.017 703.928C100.759 704.362 101.347 704.957 101.781 705.713C102.215 706.462 102.432 707.305 102.432 708.243C102.432 709.174 102.194 710.025 101.718 710.795C101.242 711.558 100.609 712.17 99.818 712.632C99.034 713.088 98.173 713.315 97.235 713.315ZM103.949 712.989L103.96 711.309L110.669 705.272C111.229 704.768 111.604 704.292 111.793 703.844C111.989 703.389 112.087 702.923 112.087 702.448C112.087 701.866 111.954 701.341 111.688 700.872C111.422 700.403 111.058 700.032 110.596 699.759C110.141 699.486 109.623 699.35 109.042 699.35C108.44 699.35 107.904 699.493 107.435 699.78C106.966 700.06 106.595 700.435 106.322 700.904C106.056 701.373 105.927 701.884 105.934 702.437H104.023C104.023 701.485 104.243 700.645 104.684 699.917C105.125 699.182 105.724 698.608 106.48 698.195C107.243 697.775 108.107 697.565 109.073 697.565C110.011 697.565 110.851 697.782 111.593 698.216C112.335 698.643 112.92 699.227 113.347 699.969C113.781 700.704 113.998 701.537 113.998 702.468C113.998 703.126 113.914 703.697 113.746 704.18C113.585 704.663 113.333 705.111 112.99 705.524C112.647 705.93 112.216 706.364 111.698 706.826L106.123 711.834L105.881 711.204H113.998V712.989H103.949ZM120.983 713.315C120.206 713.315 119.482 713.154 118.81 712.832C118.145 712.51 117.574 712.069 117.098 711.509C116.629 710.942 116.293 710.291 116.09 709.556L117.886 709.073C118.012 709.57 118.236 710 118.558 710.364C118.88 710.721 119.254 711.001 119.681 711.204C120.115 711.4 120.567 711.498 121.036 711.498C121.652 711.498 122.205 711.351 122.695 711.057C123.192 710.756 123.584 710.361 123.871 709.871C124.158 709.374 124.301 708.831 124.301 708.243C124.301 707.634 124.151 707.085 123.85 706.595C123.556 706.098 123.16 705.706 122.663 705.419C122.166 705.132 121.624 704.988 121.036 704.988C120.371 704.988 119.8 705.128 119.324 705.408C118.855 705.681 118.484 706.017 118.211 706.416L116.552 705.786L117.014 697.88H125.131V699.654H117.917L118.747 698.877L118.358 705.209L117.949 704.673C118.369 704.225 118.869 703.879 119.45 703.634C120.038 703.389 120.637 703.266 121.246 703.266C122.184 703.266 123.024 703.487 123.766 703.928C124.508 704.362 125.096 704.957 125.53 705.713C125.964 706.462 126.181 707.305 126.181 708.243C126.181 709.174 125.943 710.025 125.467 710.795C124.991 711.558 124.357 712.17 123.566 712.632C122.782 713.088 121.921 713.315 120.983 713.315ZM127.697 712.989L127.708 711.309L134.417 705.272C134.977 704.768 135.352 704.292 135.541 703.844C135.737 703.389 135.835 702.923 135.835 702.448C135.835 701.866 135.702 701.341 135.436 700.872C135.17 700.403 134.806 700.032 134.344 699.759C133.889 699.486 133.371 699.35 132.79 699.35C132.188 699.35 131.652 699.493 131.183 699.78C130.714 700.06 130.343 700.435 130.07 700.904C129.804 701.373 129.675 701.884 129.682 702.437H127.771C127.771 701.485 127.991 700.645 128.432 699.917C128.873 699.182 129.472 698.608 130.228 698.195C130.991 697.775 131.855 697.565 132.821 697.565C133.759 697.565 134.599 697.782 135.341 698.216C136.083 698.643 136.668 699.227 137.095 699.969C137.529 700.704 137.746 701.537 137.746 702.468C137.746 703.126 137.662 703.697 137.494 704.18C137.333 704.663 137.081 705.111 136.738 705.524C136.395 705.93 135.964 706.364 135.446 706.826L129.871 711.834L129.629 711.204H137.746V712.989H127.697Z" fill="#F2EFD2" fill-opacity="0.8"/>
<path d="M776.54 666V665.56H777.464C778.168 665.56 778.755 665.457 779.224 665.252C779.723 665.047 780.089 664.724 780.324 664.284C780.588 663.815 780.72 663.213 780.72 662.48V637.972C780.72 637.268 780.588 636.696 780.324 636.256C780.089 635.816 779.723 635.508 779.224 635.332C778.755 635.127 778.168 635.024 777.464 635.024H776.54V634.584H790.004V635.024H789.08C788.405 635.024 787.819 635.127 787.32 635.332C786.851 635.537 786.484 635.86 786.22 636.3C785.985 636.74 785.868 637.327 785.868 638.06V665.56H793.524C795.137 665.56 796.428 665.34 797.396 664.9C798.393 664.431 799.127 663.653 799.596 662.568C800.065 661.453 800.359 659.972 800.476 658.124L800.608 656.452H801.048L800.74 666H776.54ZM815.869 666.44C812.437 666.44 809.782 665.384 807.905 663.272C806.057 661.16 805.133 658.197 805.133 654.384C805.133 650.248 806.013 647.139 807.773 645.056C809.533 642.973 812.011 641.932 815.209 641.932C818.142 641.932 820.445 642.827 822.117 644.616C823.818 646.376 824.669 649.001 824.669 652.492V653.548H810.105C810.105 656.511 810.31 658.916 810.721 660.764C811.131 662.583 811.791 663.917 812.701 664.768C813.61 665.589 814.798 666 816.265 666C817.35 666 818.318 665.795 819.169 665.384C820.019 664.944 820.738 664.299 821.325 663.448C821.911 662.597 822.307 661.527 822.513 660.236C822.923 660.324 823.217 660.529 823.393 660.852C823.598 661.145 823.701 661.483 823.701 661.864C823.701 662.509 823.407 663.199 822.821 663.932C822.263 664.636 821.398 665.237 820.225 665.736C819.081 666.205 817.629 666.44 815.869 666.44ZM819.609 653.108C819.609 650.497 819.462 648.415 819.169 646.86C818.875 645.305 818.406 644.176 817.761 643.472C817.115 642.739 816.25 642.372 815.165 642.372C814.021 642.372 813.082 642.739 812.349 643.472C811.645 644.176 811.117 645.305 810.765 646.86C810.413 648.415 810.193 650.497 810.105 653.108H819.609ZM827.877 666V665.56H828.273C829.036 665.56 829.667 665.457 830.165 665.252C830.693 665.047 831.089 664.709 831.353 664.24C831.617 663.771 831.749 663.125 831.749 662.304V646.068C831.749 645.247 831.617 644.616 831.353 644.176C831.089 643.707 830.693 643.369 830.165 643.164C829.667 642.959 829.036 642.856 828.273 642.856H828.053V642.416H836.545V646.552H836.633C837.044 645.261 837.587 644.293 838.261 643.648C838.936 642.973 839.699 642.519 840.549 642.284C841.4 642.049 842.265 641.932 843.145 641.932C844.289 641.932 845.316 642.108 846.225 642.46C847.164 642.812 847.971 643.384 848.645 644.176C849.349 644.939 849.877 645.98 850.229 647.3H850.317C850.64 645.833 851.109 644.719 851.725 643.956C852.371 643.193 853.119 642.665 853.969 642.372C854.849 642.079 855.773 641.932 856.741 641.932C859.293 641.932 861.185 642.651 862.417 644.088C863.649 645.496 864.265 647.681 864.265 650.644V662.084C864.265 662.964 864.368 663.668 864.573 664.196C864.808 664.695 865.175 665.047 865.673 665.252C866.201 665.457 866.861 665.56 867.653 665.56H867.785V666H859.425V649.588C859.425 647.3 859.103 645.628 858.457 644.572C857.841 643.487 856.829 642.944 855.421 642.944C854.336 642.944 853.412 643.252 852.649 643.868C851.916 644.455 851.373 645.305 851.021 646.42C850.669 647.535 850.493 648.869 850.493 650.424V662.084C850.493 662.964 850.611 663.668 850.845 664.196C851.08 664.695 851.447 665.047 851.945 665.252C852.473 665.457 853.133 665.56 853.925 665.56H854.057V666H845.653V649.588C845.653 647.3 845.331 645.628 844.685 644.572C844.069 643.487 843.028 642.944 841.561 642.944C840.417 642.944 839.479 643.252 838.745 643.868C838.012 644.484 837.469 645.393 837.117 646.596C836.765 647.799 836.589 649.265 836.589 650.996V662.172C836.589 663.023 836.721 663.697 836.985 664.196C837.249 664.695 837.645 665.047 838.173 665.252C838.701 665.457 839.332 665.56 840.065 665.56H840.285V666H827.877ZM881.692 666.44C878.436 666.44 875.869 665.428 873.992 663.404C872.114 661.38 871.176 658.3 871.176 654.164C871.176 650.028 872.07 646.963 873.86 644.968C875.649 642.944 878.304 641.932 881.824 641.932C885.08 641.932 887.646 642.944 889.524 644.968C891.401 646.963 892.34 650.028 892.34 654.164C892.34 658.3 891.43 661.38 889.612 663.404C887.822 665.428 885.182 666.44 881.692 666.44ZM881.78 666C883.129 666 884.214 665.619 885.036 664.856C885.857 664.064 886.444 662.803 886.796 661.072C887.177 659.312 887.368 657.009 887.368 654.164C887.368 651.319 887.177 649.031 886.796 647.3C886.444 645.569 885.857 644.323 885.036 643.56C884.214 642.768 883.114 642.372 881.736 642.372C880.386 642.372 879.301 642.768 878.48 643.56C877.658 644.323 877.057 645.569 876.676 647.3C876.324 649.031 876.148 651.319 876.148 654.164C876.148 657.039 876.324 659.341 876.676 661.072C877.057 662.803 877.658 664.064 878.48 664.856C879.33 665.619 880.43 666 881.78 666ZM895.768 666V665.56H896.164C896.956 665.56 897.601 665.457 898.1 665.252C898.628 665.017 899.009 664.636 899.244 664.108C899.508 663.551 899.64 662.803 899.64 661.864V646.464C899.64 645.525 899.508 644.807 899.244 644.308C899.009 643.78 898.643 643.413 898.144 643.208C897.645 642.973 897.015 642.856 896.252 642.856H895.944V642.416H904.436V646.508H904.524C904.935 645.159 905.492 644.161 906.196 643.516C906.9 642.871 907.677 642.445 908.528 642.24C909.408 642.035 910.229 641.932 910.992 641.932C913.603 641.932 915.539 642.621 916.8 644C918.061 645.349 918.692 647.52 918.692 650.512V661.776C918.692 662.773 918.795 663.551 919 664.108C919.235 664.636 919.587 665.017 920.056 665.252C920.525 665.457 921.141 665.56 921.904 665.56H922.124V666H913.852V649.06C913.852 647.153 913.529 645.628 912.884 644.484C912.239 643.34 911.124 642.768 909.54 642.768C908.279 642.768 907.267 643.135 906.504 643.868C905.771 644.601 905.243 645.569 904.92 646.772C904.627 647.945 904.48 649.207 904.48 650.556V661.82C904.48 662.817 904.597 663.58 904.832 664.108C905.096 664.636 905.477 665.017 905.976 665.252C906.504 665.457 907.149 665.56 907.912 665.56H908.176V666H895.768ZM944.519 666.44C942.994 666.44 941.63 666.279 940.427 665.956C939.254 665.633 938.271 665.193 937.479 664.636C936.687 664.079 936.086 663.433 935.675 662.7C935.294 661.937 935.103 661.145 935.103 660.324C935.103 659.561 935.25 658.945 935.543 658.476C935.866 657.977 936.306 657.611 936.863 657.376C937.42 657.112 938.051 656.98 938.755 656.98C938.784 659.121 939.034 660.852 939.503 662.172C939.972 663.492 940.662 664.46 941.571 665.076C942.51 665.692 943.654 666 945.003 666C946.851 666 948.347 665.472 949.491 664.416C950.664 663.36 951.251 661.805 951.251 659.752C951.251 658.403 950.987 657.317 950.459 656.496C949.931 655.645 949.124 654.883 948.039 654.208C946.954 653.533 945.546 652.815 943.815 652.052C942.759 651.583 941.732 651.069 940.735 650.512C939.767 649.955 938.902 649.309 938.139 648.576C937.376 647.843 936.775 646.977 936.335 645.98C935.924 644.953 935.719 643.78 935.719 642.46C935.719 640.671 936.115 639.16 936.907 637.928C937.699 636.696 938.828 635.757 940.295 635.112C941.791 634.467 943.536 634.144 945.531 634.144C947.32 634.144 948.846 634.379 950.107 634.848C951.398 635.317 952.395 635.933 953.099 636.696C953.832 637.459 954.199 638.295 954.199 639.204C954.199 640.113 953.832 640.847 953.099 641.404C952.395 641.932 951.427 642.196 950.195 642.196C950.195 640.495 950.019 639.087 949.667 637.972C949.344 636.857 948.816 636.021 948.083 635.464C947.35 634.907 946.367 634.628 945.135 634.628C944.138 634.628 943.214 634.833 942.363 635.244C941.542 635.655 940.896 636.285 940.427 637.136C939.958 637.957 939.723 639.043 939.723 640.392C939.723 641.741 939.987 642.856 940.515 643.736C941.043 644.616 941.85 645.393 942.935 646.068C944.02 646.713 945.414 647.432 947.115 648.224C948.758 648.928 950.195 649.676 951.427 650.468C952.688 651.231 953.671 652.169 954.375 653.284C955.079 654.399 955.431 655.807 955.431 657.508C955.431 659.327 955.006 660.911 954.155 662.26C953.304 663.58 952.058 664.607 950.415 665.34C948.802 666.073 946.836 666.44 944.519 666.44ZM970.508 666.44C967.252 666.44 964.685 665.428 962.808 663.404C960.931 661.38 959.992 658.3 959.992 654.164C959.992 650.028 960.887 646.963 962.676 644.968C964.465 642.944 967.12 641.932 970.64 641.932C973.896 641.932 976.463 642.944 978.34 644.968C980.217 646.963 981.156 650.028 981.156 654.164C981.156 658.3 980.247 661.38 978.428 663.404C976.639 665.428 973.999 666.44 970.508 666.44ZM970.596 666C971.945 666 973.031 665.619 973.852 664.856C974.673 664.064 975.26 662.803 975.612 661.072C975.993 659.312 976.184 657.009 976.184 654.164C976.184 651.319 975.993 649.031 975.612 647.3C975.26 645.569 974.673 644.323 973.852 643.56C973.031 642.768 971.931 642.372 970.552 642.372C969.203 642.372 968.117 642.768 967.296 643.56C966.475 644.323 965.873 645.569 965.492 647.3C965.14 649.031 964.964 651.319 964.964 654.164C964.964 657.039 965.14 659.341 965.492 661.072C965.873 662.803 966.475 664.064 967.296 664.856C968.147 665.619 969.247 666 970.596 666ZM984.452 666V665.56H984.98C985.743 665.56 986.374 665.457 986.872 665.252C987.4 665.047 987.796 664.709 988.06 664.24C988.324 663.771 988.456 663.125 988.456 662.304V646.068C988.456 645.276 988.324 644.645 988.06 644.176C987.796 643.707 987.4 643.369 986.872 643.164C986.374 642.959 985.743 642.856 984.98 642.856H984.848V642.416H993.252V646.64H993.34C993.575 645.819 993.912 645.056 994.352 644.352C994.822 643.648 995.467 643.076 996.288 642.636C997.11 642.167 998.18 641.932 999.5 641.932C1001.03 641.932 1002.18 642.24 1002.98 642.856C1003.77 643.443 1004.16 644.279 1004.16 645.364C1004.16 646.361 1003.8 647.168 1003.06 647.784C1002.33 648.4 1001.2 648.708 999.676 648.708C999.676 647.388 999.544 646.361 999.28 645.628C999.016 644.895 998.664 644.381 998.224 644.088C997.814 643.765 997.344 643.604 996.816 643.604C996.083 643.604 995.482 643.853 995.012 644.352C994.543 644.851 994.176 645.525 993.912 646.376C993.678 647.227 993.516 648.136 993.428 649.104C993.34 650.072 993.296 651.055 993.296 652.052V662.172C993.296 663.023 993.428 663.697 993.692 664.196C993.956 664.695 994.352 665.047 994.88 665.252C995.408 665.457 996.039 665.56 996.772 665.56H997.564V666H984.452ZM1021.08 666.44C1019.23 666.44 1017.75 665.912 1016.63 664.856C1015.52 663.771 1014.77 662.099 1014.39 659.84H1014.3V666H1005.63V665.56H1006.03C1006.79 665.56 1007.42 665.457 1007.92 665.252C1008.45 665.047 1008.84 664.709 1009.11 664.24C1009.37 663.771 1009.5 663.125 1009.5 662.304V636.212C1009.5 635.42 1009.37 634.789 1009.11 634.32C1008.84 633.851 1008.45 633.513 1007.92 633.308C1007.39 633.103 1006.76 633 1006.03 633H1005.76V632.56H1014.34V640.48C1014.34 640.979 1014.34 641.639 1014.34 642.46C1014.34 643.281 1014.33 644.205 1014.3 645.232C1014.3 646.229 1014.29 647.271 1014.26 648.356H1014.34C1014.73 646.185 1015.49 644.572 1016.63 643.516C1017.78 642.46 1019.3 641.932 1021.21 641.932C1024.05 641.932 1026.22 642.959 1027.72 645.012C1029.22 647.036 1029.96 650.087 1029.96 654.164C1029.96 656.863 1029.63 659.136 1028.95 660.984C1028.28 662.803 1027.28 664.167 1025.96 665.076C1024.64 665.985 1023.01 666.44 1021.08 666.44ZM1020.02 665.648C1021.19 665.648 1022.15 665.252 1022.88 664.46C1023.61 663.639 1024.14 662.377 1024.46 660.676C1024.82 658.945 1024.99 656.701 1024.99 653.944C1024.99 651.304 1024.82 649.163 1024.46 647.52C1024.14 645.877 1023.61 644.675 1022.88 643.912C1022.15 643.12 1021.19 642.724 1020.02 642.724C1018.03 642.724 1016.57 643.677 1015.66 645.584C1014.78 647.461 1014.34 650.263 1014.34 653.988C1014.34 656.599 1014.55 658.769 1014.96 660.5C1015.37 662.231 1016 663.521 1016.85 664.372C1017.7 665.223 1018.76 665.648 1020.02 665.648ZM1045.36 666.44C1041.93 666.44 1039.28 665.384 1037.4 663.272C1035.55 661.16 1034.63 658.197 1034.63 654.384C1034.63 650.248 1035.51 647.139 1037.27 645.056C1039.03 642.973 1041.51 641.932 1044.7 641.932C1047.64 641.932 1049.94 642.827 1051.61 644.616C1053.31 646.376 1054.16 649.001 1054.16 652.492V653.548H1039.6C1039.6 656.511 1039.81 658.916 1040.22 660.764C1040.63 662.583 1041.29 663.917 1042.2 664.768C1043.11 665.589 1044.29 666 1045.76 666C1046.85 666 1047.81 665.795 1048.66 665.384C1049.52 664.944 1050.23 664.299 1050.82 663.448C1051.41 662.597 1051.8 661.527 1052.01 660.236C1052.42 660.324 1052.71 660.529 1052.89 660.852C1053.09 661.145 1053.2 661.483 1053.2 661.864C1053.2 662.509 1052.9 663.199 1052.32 663.932C1051.76 664.636 1050.89 665.237 1049.72 665.736C1048.58 666.205 1047.12 666.44 1045.36 666.44ZM1049.1 653.108C1049.1 650.497 1048.96 648.415 1048.66 646.86C1048.37 645.305 1047.9 644.176 1047.26 643.472C1046.61 642.739 1045.75 642.372 1044.66 642.372C1043.52 642.372 1042.58 642.739 1041.84 643.472C1041.14 644.176 1040.61 645.305 1040.26 646.86C1039.91 648.415 1039.69 650.497 1039.6 653.108H1049.1ZM1066.88 666.44C1064.71 666.44 1063.09 665.941 1062.04 664.944C1060.98 663.917 1060.45 662.128 1060.45 659.576V642.856H1057.15V642.416C1058.3 642.416 1059.29 642.313 1060.15 642.108C1061.03 641.873 1061.77 641.521 1062.39 641.052C1063.03 640.583 1063.55 639.981 1063.93 639.248C1064.34 638.485 1064.65 637.576 1064.85 636.52H1065.29V642.416H1071.32V642.856H1065.29V661.292C1065.29 662.788 1065.57 663.903 1066.13 664.636C1066.72 665.369 1067.57 665.736 1068.68 665.736C1069.09 665.736 1069.52 665.692 1069.96 665.604C1070.43 665.516 1070.91 665.384 1071.41 665.208V665.648C1071.03 665.824 1070.41 666 1069.56 666.176C1068.71 666.352 1067.82 666.44 1066.88 666.44Z" fill="#001309"/>
<path d="M779.2 722.989L780.376 718.59H776.26L776.733 716.805H780.859L781.668 713.739H777.552L778.035 711.965H782.151L783.243 707.88H785.091L783.988 711.965H787.191L788.283 707.88H790.131L789.028 711.965H793.144L792.672 713.739H788.556L787.726 716.805H791.842L791.37 718.59H787.254L786.078 722.989H784.24L785.406 718.59H782.214L781.038 722.989H779.2ZM782.697 716.805H785.889L786.708 713.739H783.516L782.697 716.805ZM795.87 723V707.88H804.69V709.749H797.739V714.505H803.43V716.374H797.739V723H795.87ZM806.155 722.989L806.166 721.309L812.875 715.272C813.435 714.768 813.81 714.292 813.999 713.844C814.195 713.389 814.293 712.923 814.293 712.448C814.293 711.866 814.16 711.341 813.894 710.872C813.628 710.403 813.264 710.032 812.802 709.759C812.347 709.486 811.829 709.35 811.248 709.35C810.646 709.35 810.11 709.493 809.641 709.78C809.172 710.06 808.801 710.435 808.528 710.904C808.262 711.373 808.133 711.884 808.14 712.437H806.229C806.229 711.485 806.449 710.645 806.89 709.917C807.331 709.182 807.93 708.608 808.686 708.195C809.449 707.775 810.313 707.565 811.279 707.565C812.217 707.565 813.057 707.782 813.799 708.216C814.541 708.643 815.126 709.227 815.553 709.969C815.987 710.704 816.204 711.537 816.204 712.468C816.204 713.126 816.12 713.697 815.952 714.18C815.791 714.663 815.539 715.111 815.196 715.524C814.853 715.93 814.422 716.364 813.904 716.826L808.329 721.834L808.087 721.204H816.204V722.989H806.155ZM818.716 723V707.88H828.271V709.654H820.585V714.39H827.011V716.164H820.585V721.225H828.271V723H818.716ZM830.795 723V707.88H839.615V709.749H832.664V714.505H838.355V716.374H832.664V723H830.795ZM841.5 723V707.88H846.162C846.316 707.88 846.586 707.883 846.971 707.89C847.356 707.897 847.723 707.925 848.073 707.974C849.242 708.128 850.219 708.555 851.003 709.255C851.794 709.948 852.389 710.83 852.788 711.901C853.187 712.972 853.386 714.152 853.386 715.44C853.386 716.728 853.187 717.907 852.788 718.978C852.389 720.049 851.794 720.935 851.003 721.635C850.219 722.328 849.242 722.751 848.073 722.905C847.723 722.947 847.352 722.975 846.96 722.989C846.575 722.996 846.309 723 846.162 723H841.5ZM843.422 721.215H846.162C846.428 721.215 846.726 721.208 847.055 721.194C847.384 721.173 847.671 721.141 847.916 721.099C848.742 720.945 849.41 720.599 849.921 720.06C850.432 719.521 850.807 718.849 851.045 718.044C851.283 717.239 851.402 716.371 851.402 715.44C851.402 714.488 851.279 713.609 851.034 712.804C850.796 711.999 850.422 711.331 849.911 710.799C849.4 710.267 848.735 709.927 847.916 709.78C847.671 709.731 847.38 709.7 847.044 709.686C846.708 709.672 846.414 709.665 846.162 709.665H843.422V721.215ZM855.374 722.989L855.385 721.309L862.094 715.272C862.654 714.768 863.029 714.292 863.218 713.844C863.414 713.389 863.512 712.923 863.512 712.448C863.512 711.866 863.379 711.341 863.113 710.872C862.847 710.403 862.483 710.032 862.021 709.759C861.566 709.486 861.048 709.35 860.467 709.35C859.865 709.35 859.329 709.493 858.86 709.78C858.391 710.06 858.02 710.435 857.747 710.904C857.481 711.373 857.352 711.884 857.359 712.437H855.448C855.448 711.485 855.668 710.645 856.109 709.917C856.55 709.182 857.149 708.608 857.905 708.195C858.668 707.775 859.532 707.565 860.498 707.565C861.436 707.565 862.276 707.782 863.018 708.216C863.76 708.643 864.345 709.227 864.772 709.969C865.206 710.704 865.423 711.537 865.423 712.468C865.423 713.126 865.339 713.697 865.171 714.18C865.01 714.663 864.758 715.111 864.415 715.524C864.072 715.93 863.641 716.364 863.123 716.826L857.548 721.834L857.306 721.204H865.423V722.989H855.374Z" fill="black" fill-opacity="0.6"/>
<rect x="1150" width="364" height="764" rx="40" fill="#001309"/>
<path d="M1178.54 666V665.56H1179.46C1180.17 665.56 1180.75 665.457 1181.22 665.252C1181.72 665.047 1182.09 664.724 1182.32 664.284C1182.59 663.815 1182.72 663.213 1182.72 662.48V637.928C1182.72 637.224 1182.59 636.667 1182.32 636.256C1182.09 635.816 1181.72 635.508 1181.22 635.332C1180.75 635.127 1180.17 635.024 1179.46 635.024H1178.54V634.584H1191.21C1195.03 634.584 1197.84 635.405 1199.66 637.048C1201.48 638.691 1202.39 640.949 1202.39 643.824C1202.39 645.144 1202.17 646.405 1201.73 647.608C1201.32 648.781 1200.63 649.837 1199.66 650.776C1198.72 651.715 1197.47 652.463 1195.92 653.02C1194.37 653.548 1192.47 653.812 1190.24 653.812H1187.82V662.524C1187.82 663.257 1187.96 663.844 1188.22 664.284C1188.48 664.724 1188.85 665.047 1189.32 665.252C1189.82 665.457 1190.41 665.56 1191.08 665.56H1192.27V666H1178.54ZM1189.8 653.372C1191.09 653.372 1192.18 653.211 1193.06 652.888C1193.97 652.536 1194.7 651.993 1195.26 651.26C1195.82 650.497 1196.23 649.529 1196.49 648.356C1196.76 647.153 1196.89 645.716 1196.89 644.044C1196.89 641.873 1196.67 640.128 1196.23 638.808C1195.82 637.488 1195.14 636.535 1194.2 635.948C1193.27 635.332 1192.02 635.024 1190.46 635.024H1187.82V653.372H1189.8ZM1217.05 666.44C1213.62 666.44 1210.97 665.384 1209.09 663.272C1207.24 661.16 1206.32 658.197 1206.32 654.384C1206.32 650.248 1207.2 647.139 1208.96 645.056C1210.72 642.973 1213.2 641.932 1216.39 641.932C1219.33 641.932 1221.63 642.827 1223.3 644.616C1225 646.376 1225.85 649.001 1225.85 652.492V653.548H1211.29C1211.29 656.511 1211.49 658.916 1211.9 660.764C1212.32 662.583 1212.98 663.917 1213.88 664.768C1214.79 665.589 1215.98 666 1217.45 666C1218.53 666 1219.5 665.795 1220.35 665.384C1221.2 664.944 1221.92 664.299 1222.51 663.448C1223.1 662.597 1223.49 661.527 1223.7 660.236C1224.11 660.324 1224.4 660.529 1224.58 660.852C1224.78 661.145 1224.88 661.483 1224.88 661.864C1224.88 662.509 1224.59 663.199 1224 663.932C1223.45 664.636 1222.58 665.237 1221.41 665.736C1220.26 666.205 1218.81 666.44 1217.05 666.44ZM1220.79 653.108C1220.79 650.497 1220.65 648.415 1220.35 646.86C1220.06 645.305 1219.59 644.176 1218.94 643.472C1218.3 642.739 1217.43 642.372 1216.35 642.372C1215.2 642.372 1214.27 642.739 1213.53 643.472C1212.83 644.176 1212.3 645.305 1211.95 646.86C1211.6 648.415 1211.38 650.497 1211.29 653.108H1220.79ZM1228.88 676.56V676.12H1229.28C1230.04 676.12 1230.67 676.017 1231.17 675.812C1231.7 675.607 1232.1 675.269 1232.36 674.8C1232.62 674.331 1232.76 673.685 1232.76 672.864V646.068C1232.76 645.276 1232.62 644.645 1232.36 644.176C1232.1 643.707 1231.7 643.369 1231.17 643.164C1230.67 642.959 1230.04 642.856 1229.28 642.856H1228.84V642.416H1237.55V648.356H1237.64C1238.02 646.185 1238.77 644.572 1239.88 643.516C1241.03 642.46 1242.55 641.932 1244.46 641.932C1247.34 641.932 1249.51 642.959 1250.97 645.012C1252.47 647.036 1253.22 650.087 1253.22 654.164C1253.22 658.241 1252.45 661.307 1250.93 663.36C1249.43 665.413 1247.23 666.44 1244.33 666.44C1242.51 666.44 1241.04 665.912 1239.93 664.856C1238.81 663.771 1238.05 662.099 1237.64 659.84H1237.55C1237.58 660.339 1237.6 660.867 1237.6 661.424C1237.6 661.981 1237.6 662.539 1237.6 663.096C1237.6 663.624 1237.6 664.152 1237.6 664.68V672.732C1237.6 673.553 1237.73 674.213 1237.99 674.712C1238.26 675.24 1238.65 675.607 1239.18 675.812C1239.71 676.017 1240.34 676.12 1241.07 676.12H1241.47V676.56H1228.88ZM1243.27 665.648C1244.48 665.648 1245.44 665.252 1246.18 664.46C1246.91 663.639 1247.44 662.363 1247.76 660.632C1248.11 658.901 1248.29 656.672 1248.29 653.944C1248.29 651.304 1248.11 649.163 1247.76 647.52C1247.44 645.877 1246.9 644.675 1246.13 643.912C1245.4 643.12 1244.45 642.724 1243.27 642.724C1241.98 642.724 1240.91 643.149 1240.06 644C1239.24 644.851 1238.62 646.112 1238.21 647.784C1237.8 649.427 1237.6 651.495 1237.6 653.988C1237.6 656.599 1237.8 658.769 1238.21 660.5C1238.62 662.231 1239.25 663.521 1240.1 664.372C1240.96 665.223 1242.01 665.648 1243.27 665.648ZM1256.3 676.56V676.12H1256.7C1257.46 676.12 1258.09 676.017 1258.59 675.812C1259.12 675.607 1259.51 675.269 1259.78 674.8C1260.04 674.331 1260.17 673.685 1260.17 672.864V646.068C1260.17 645.276 1260.04 644.645 1259.78 644.176C1259.51 643.707 1259.12 643.369 1258.59 643.164C1258.09 642.959 1257.46 642.856 1256.7 642.856H1256.26V642.416H1264.97V648.356H1265.06C1265.44 646.185 1266.18 644.572 1267.3 643.516C1268.44 642.46 1269.97 641.932 1271.88 641.932C1274.75 641.932 1276.92 642.959 1278.39 645.012C1279.88 647.036 1280.63 650.087 1280.63 654.164C1280.63 658.241 1279.87 661.307 1278.34 663.36C1276.85 665.413 1274.65 666.44 1271.74 666.44C1269.92 666.44 1268.46 665.912 1267.34 664.856C1266.23 663.771 1265.47 662.099 1265.06 659.84H1264.97C1265 660.339 1265.01 660.867 1265.01 661.424C1265.01 661.981 1265.01 662.539 1265.01 663.096C1265.01 663.624 1265.01 664.152 1265.01 664.68V672.732C1265.01 673.553 1265.14 674.213 1265.41 674.712C1265.67 675.24 1266.07 675.607 1266.6 675.812C1267.12 676.017 1267.75 676.12 1268.49 676.12H1268.88V676.56H1256.3ZM1270.69 665.648C1271.89 665.648 1272.86 665.252 1273.59 664.46C1274.32 663.639 1274.85 662.363 1275.18 660.632C1275.53 658.901 1275.7 656.672 1275.7 653.944C1275.7 651.304 1275.53 649.163 1275.18 647.52C1274.85 645.877 1274.31 644.675 1273.55 643.912C1272.81 643.12 1271.86 642.724 1270.69 642.724C1269.4 642.724 1268.33 643.149 1267.48 644C1266.65 644.851 1266.04 646.112 1265.63 647.784C1265.22 649.427 1265.01 651.495 1265.01 653.988C1265.01 656.599 1265.22 658.769 1265.63 660.5C1266.04 662.231 1266.67 663.521 1267.52 664.372C1268.37 665.223 1269.43 665.648 1270.69 665.648ZM1295.86 666.44C1292.43 666.44 1289.77 665.384 1287.89 663.272C1286.05 661.16 1285.12 658.197 1285.12 654.384C1285.12 650.248 1286 647.139 1287.76 645.056C1289.52 642.973 1292 641.932 1295.2 641.932C1298.13 641.932 1300.43 642.827 1302.11 644.616C1303.81 646.376 1304.66 649.001 1304.66 652.492V653.548H1290.09C1290.09 656.511 1290.3 658.916 1290.71 660.764C1291.12 662.583 1291.78 663.917 1292.69 664.768C1293.6 665.589 1294.79 666 1296.25 666C1297.34 666 1298.31 665.795 1299.16 665.384C1300.01 664.944 1300.73 664.299 1301.31 663.448C1301.9 662.597 1302.3 661.527 1302.5 660.236C1302.91 660.324 1303.21 660.529 1303.38 660.852C1303.59 661.145 1303.69 661.483 1303.69 661.864C1303.69 662.509 1303.4 663.199 1302.81 663.932C1302.25 664.636 1301.39 665.237 1300.21 665.736C1299.07 666.205 1297.62 666.44 1295.86 666.44ZM1299.6 653.108C1299.6 650.497 1299.45 648.415 1299.16 646.86C1298.86 645.305 1298.39 644.176 1297.75 643.472C1297.1 642.739 1296.24 642.372 1295.15 642.372C1294.01 642.372 1293.07 642.739 1292.34 643.472C1291.63 644.176 1291.11 645.305 1290.75 646.86C1290.4 648.415 1290.18 650.497 1290.09 653.108H1299.6ZM1307.73 666V665.56H1308.26C1309.02 665.56 1309.65 665.457 1310.15 665.252C1310.68 665.047 1311.08 664.709 1311.34 664.24C1311.61 663.771 1311.74 663.125 1311.74 662.304V646.068C1311.74 645.276 1311.61 644.645 1311.34 644.176C1311.08 643.707 1310.68 643.369 1310.15 643.164C1309.65 642.959 1309.02 642.856 1308.26 642.856H1308.13V642.416H1316.53V646.64H1316.62C1316.86 645.819 1317.19 645.056 1317.63 644.352C1318.1 643.648 1318.75 643.076 1319.57 642.636C1320.39 642.167 1321.46 641.932 1322.78 641.932C1324.31 641.932 1325.47 642.24 1326.26 642.856C1327.05 643.443 1327.45 644.279 1327.45 645.364C1327.45 646.361 1327.08 647.168 1326.35 647.784C1325.61 648.4 1324.48 648.708 1322.96 648.708C1322.96 647.388 1322.83 646.361 1322.56 645.628C1322.3 644.895 1321.95 644.381 1321.51 644.088C1321.09 643.765 1320.63 643.604 1320.1 643.604C1319.36 643.604 1318.76 643.853 1318.29 644.352C1317.82 644.851 1317.46 645.525 1317.19 646.376C1316.96 647.227 1316.8 648.136 1316.71 649.104C1316.62 650.072 1316.58 651.055 1316.58 652.052V662.172C1316.58 663.023 1316.71 663.697 1316.97 664.196C1317.24 664.695 1317.63 665.047 1318.16 665.252C1318.69 665.457 1319.32 665.56 1320.05 665.56H1320.85V666H1307.73Z" fill="#F2EFD2"/>
<path d="M1181.2 722.989L1182.38 718.59H1178.26L1178.73 716.805H1182.86L1183.67 713.739H1179.55L1180.03 711.965H1184.15L1185.24 707.88H1187.09L1185.99 711.965H1189.19L1190.28 707.88H1192.13L1191.03 711.965H1195.14L1194.67 713.739H1190.56L1189.73 716.805H1193.84L1193.37 718.59H1189.25L1188.08 722.989H1186.24L1187.41 718.59H1184.21L1183.04 722.989H1181.2ZM1184.7 716.805H1187.89L1188.71 713.739H1185.52L1184.7 716.805ZM1202.97 723.315C1201.99 723.315 1201.12 723.095 1200.35 722.654C1199.59 722.205 1198.98 721.6 1198.53 720.837C1198.09 720.067 1197.87 719.192 1197.87 718.212V712.668C1197.87 711.688 1198.09 710.813 1198.53 710.043C1198.98 709.273 1199.59 708.667 1200.35 708.226C1201.12 707.785 1201.99 707.565 1202.97 707.565C1203.95 707.565 1204.83 707.785 1205.6 708.226C1206.37 708.667 1206.97 709.273 1207.41 710.043C1207.86 710.813 1208.08 711.688 1208.08 712.668V718.212C1208.08 719.192 1207.86 720.067 1207.41 720.837C1206.97 721.6 1206.37 722.205 1205.6 722.654C1204.83 723.095 1203.95 723.315 1202.97 723.315ZM1202.97 721.519C1203.57 721.519 1204.11 721.376 1204.59 721.089C1205.07 720.802 1205.46 720.417 1205.75 719.934C1206.03 719.444 1206.18 718.905 1206.18 718.317V712.552C1206.18 711.957 1206.03 711.418 1205.75 710.935C1205.46 710.452 1205.07 710.067 1204.59 709.78C1204.11 709.493 1203.57 709.35 1202.97 709.35C1202.39 709.35 1201.85 709.493 1201.36 709.78C1200.87 710.067 1200.49 710.452 1200.2 710.935C1199.91 711.418 1199.77 711.957 1199.77 712.552V718.317C1199.77 718.905 1199.91 719.444 1200.2 719.934C1200.49 720.417 1200.87 720.802 1201.36 721.089C1201.85 721.376 1202.39 721.519 1202.97 721.519ZM1216.12 723.315C1215.14 723.315 1214.26 723.095 1213.49 722.654C1212.73 722.205 1212.13 721.6 1211.68 720.837C1211.24 720.067 1211.02 719.192 1211.02 718.212V712.668C1211.02 711.688 1211.24 710.813 1211.68 710.043C1212.13 709.273 1212.73 708.667 1213.49 708.226C1214.26 707.785 1215.14 707.565 1216.12 707.565C1217.1 707.565 1217.97 707.785 1218.74 708.226C1219.51 708.667 1220.12 709.273 1220.56 710.043C1221 710.813 1221.22 711.688 1221.22 712.668V718.212C1221.22 719.192 1221 720.067 1220.56 720.837C1220.12 721.6 1219.51 722.205 1218.74 722.654C1217.97 723.095 1217.1 723.315 1216.12 723.315ZM1216.12 721.519C1216.71 721.519 1217.25 721.376 1217.74 721.089C1218.22 720.802 1218.6 720.417 1218.89 719.934C1219.18 719.444 1219.32 718.905 1219.32 718.317V712.552C1219.32 711.957 1219.18 711.418 1218.89 710.935C1218.6 710.452 1218.22 710.067 1217.74 709.78C1217.25 709.493 1216.71 709.35 1216.12 709.35C1215.53 709.35 1214.99 709.493 1214.5 709.78C1214.02 710.067 1213.63 710.452 1213.35 710.935C1213.06 711.418 1212.92 711.957 1212.92 712.552V718.317C1212.92 718.905 1213.06 719.444 1213.35 719.934C1213.63 720.417 1214.02 720.802 1214.5 721.089C1214.99 721.376 1215.53 721.519 1216.12 721.519ZM1226.8 723V709.948L1223.95 711.671V709.581L1226.8 707.88H1228.7V723H1226.8ZM1236.84 723.294C1236.09 723.294 1235.39 723.158 1234.75 722.884C1234.11 722.604 1233.55 722.212 1233.08 721.708C1232.62 721.197 1232.28 720.592 1232.06 719.892L1233.86 719.377C1234.09 720.077 1234.47 720.609 1235.01 720.973C1235.55 721.337 1236.16 721.516 1236.83 721.509C1237.45 721.495 1237.98 721.355 1238.43 721.089C1238.88 720.816 1239.23 720.445 1239.48 719.976C1239.73 719.507 1239.85 718.964 1239.85 718.348C1239.85 717.41 1239.57 716.651 1239.01 716.07C1238.45 715.482 1237.72 715.188 1236.81 715.188C1236.56 715.188 1236.29 715.223 1236.01 715.293C1235.74 715.363 1235.48 715.461 1235.24 715.587L1234.34 714.106L1239.95 709.035L1240.19 709.665H1232.66V707.88H1241.58V709.675L1236.8 714.253L1236.78 713.592C1237.78 713.522 1238.65 713.686 1239.4 714.085C1240.15 714.484 1240.73 715.055 1241.15 715.797C1241.57 716.539 1241.78 717.389 1241.78 718.348C1241.78 719.314 1241.56 720.168 1241.12 720.91C1240.69 721.652 1240.1 722.237 1239.36 722.664C1238.62 723.084 1237.78 723.294 1236.84 723.294ZM1249.61 723.315C1248.63 723.315 1247.75 723.095 1246.98 722.654C1246.22 722.205 1245.61 721.6 1245.17 720.837C1244.73 720.067 1244.51 719.192 1244.51 718.212V712.668C1244.51 711.688 1244.73 710.813 1245.17 710.043C1245.61 709.273 1246.22 708.667 1246.98 708.226C1247.75 707.785 1248.63 707.565 1249.61 707.565C1250.59 707.565 1251.46 707.785 1252.23 708.226C1253 708.667 1253.61 709.273 1254.05 710.043C1254.49 710.813 1254.71 711.688 1254.71 712.668V718.212C1254.71 719.192 1254.49 720.067 1254.05 720.837C1253.61 721.6 1253 722.205 1252.23 722.654C1251.46 723.095 1250.59 723.315 1249.61 723.315ZM1249.61 721.519C1250.2 721.519 1250.74 721.376 1251.23 721.089C1251.71 720.802 1252.09 720.417 1252.38 719.934C1252.67 719.444 1252.81 718.905 1252.81 718.317V712.552C1252.81 711.957 1252.67 711.418 1252.38 710.935C1252.09 710.452 1251.71 710.067 1251.23 709.78C1250.74 709.493 1250.2 709.35 1249.61 709.35C1249.02 709.35 1248.48 709.493 1247.99 709.78C1247.51 710.067 1247.12 710.452 1246.84 710.935C1246.55 711.418 1246.41 711.957 1246.41 712.552V718.317C1246.41 718.905 1246.55 719.444 1246.84 719.934C1247.12 720.417 1247.51 720.802 1247.99 721.089C1248.48 721.376 1249.02 721.519 1249.61 721.519ZM1262.6 707.575C1263.56 707.575 1264.43 707.806 1265.21 708.268C1265.99 708.73 1266.6 709.36 1267.06 710.158C1267.52 710.956 1267.75 711.863 1267.75 712.878V717.907C1267.75 718.964 1267.52 719.899 1267.07 720.711C1266.61 721.523 1265.98 722.16 1265.18 722.622C1264.38 723.084 1263.46 723.315 1262.43 723.315C1261.6 723.315 1260.83 723.144 1260.11 722.8C1259.39 722.457 1258.79 721.971 1258.29 721.341L1259.69 720.102C1260 720.536 1260.39 720.886 1260.87 721.152C1261.36 721.411 1261.88 721.54 1262.43 721.54C1263.1 721.54 1263.69 721.379 1264.2 721.057C1264.72 720.735 1265.12 720.315 1265.41 719.797C1265.7 719.279 1265.85 718.719 1265.85 718.117V715.083L1266.26 715.545C1265.83 716.175 1265.27 716.679 1264.59 717.057C1263.91 717.435 1263.17 717.624 1262.38 717.624C1261.44 717.624 1260.6 717.403 1259.86 716.962C1259.11 716.521 1258.53 715.926 1258.09 715.177C1257.66 714.421 1257.44 713.574 1257.44 712.636C1257.44 711.698 1257.68 710.848 1258.14 710.085C1258.61 709.315 1259.24 708.706 1260.01 708.258C1260.8 707.803 1261.66 707.575 1262.6 707.575ZM1262.6 709.381C1261.99 709.381 1261.44 709.528 1260.95 709.822C1260.46 710.109 1260.07 710.501 1259.77 710.998C1259.48 711.488 1259.33 712.034 1259.33 712.636C1259.33 713.238 1259.47 713.788 1259.76 714.285C1260.06 714.775 1260.45 715.167 1260.94 715.461C1261.43 715.755 1261.98 715.902 1262.59 715.902C1263.19 715.902 1263.74 715.755 1264.23 715.461C1264.73 715.167 1265.12 714.775 1265.41 714.285C1265.7 713.788 1265.85 713.238 1265.85 712.636C1265.85 712.041 1265.7 711.499 1265.41 711.009C1265.12 710.512 1264.73 710.116 1264.23 709.822C1263.74 709.528 1263.2 709.381 1262.6 709.381Z" fill="#F2EFD2" fill-opacity="0.8"/>
</svg>
