<svg width="581" height="348" viewBox="0 0 581 348" fill="none" xmlns="http://www.w3.org/2000/svg">
<mask id="mask0_3508_185" style="mask-type:luminance" maskUnits="userSpaceOnUse" x="0" y="0" width="581" height="348">
<path d="M581 0H0V348H581V0Z" fill="white"/>
</mask>
<g mask="url(#mask0_3508_185)">
<path fill-rule="evenodd" clip-rule="evenodd" d="M315.036 40H273.964V221.853L205.841 53.2417L167.76 68.6274L237.648 241.606L105.728 109.686L76.686 138.728L203.126 265.167L39.2693 193.577L22.8257 231.213L196.205 306.964H7V348.036H196.205L22.8258 423.787L39.2693 461.423L203.126 389.833L76.686 516.273L105.728 545.313L237.648 413.394L167.76 586.374L205.841 601.758L273.964 433.148V615H315.036V433.148L383.159 601.758L421.239 586.374L351.353 413.394L483.273 545.313L512.313 516.273L385.873 389.833L549.731 461.423L566.173 423.787L392.796 348.036H582V306.964H392.793L566.173 231.213L549.731 193.577L385.873 265.167L512.313 138.728L483.273 109.686L351.353 241.606L421.239 68.6274L383.159 53.2417L315.036 221.853V40Z" fill="#2E2E2E"/>
</g>
</svg>
